Apfel Grotezk-Regular.ufo
<glyph name="exclam" format="2">
  <advance width="200"/>
  <unicode hex="0021"/>
  <outline>
    <contour>
      <point x="66" y="192" type="line"/>
      <point x="134" y="192" type="line"/>
      <point x="142" y="680" type="line"/>
      <point x="58" y="680" type="line"/>
    </contour>
    <component base="period" xOffset="4"/>
  </outline>
</glyph>
<glyph name="numbersign" format="2">
  <advance width="580"/>
  <unicode hex="0023"/>
  <outline>
    <contour>
      <point x="136" y="-32" type="line"/>
      <point x="214" y="-32" type="line"/>
      <point x="214" y="618" type="line"/>
      <point x="136" y="618" type="line"/>
    </contour>
    <contour>
      <point x="366" y="-32" type="line"/>
      <point x="444" y="-32" type="line"/>
      <point x="444" y="618" type="line"/>
      <point x="366" y="618" type="line"/>
    </contour>
    <contour>
      <point x="40" y="136" type="line"/>
      <point x="540" y="136" type="line"/>
      <point x="540" y="212" type="line"/>
      <point x="40" y="212" type="line"/>
    </contour>
    <contour>
      <point x="40" y="382" type="line"/>
      <point x="540" y="382" type="line"/>
      <point x="540" y="456" type="line"/>
      <point x="40" y="456" type="line"/>
    </contour>
  </outline>
</glyph>
<glyph name="ampersand" format="2">
  <advance width="612"/>
  <unicode hex="0026"/>
  <outline>
    <contour>
      <point x="274" y="-12" type="curve" smooth="yes"/>
      <point x="404" y="-12"/>
      <point x="490" y="72"/>
      <point x="490" y="180" type="curve" smooth="yes"/>
      <point x="490" y="307" type="line"/>
      <point x="590" y="307" type="line"/>
      <point x="590" y="385" type="line"/>
      <point x="490" y="385" type="line"/>
      <point x="490" y="512" type="line"/>
      <point x="414" y="512" type="line"/>
      <point x="414" y="447" type="line" smooth="yes"/>
      <point x="414" y="411"/>
      <point x="391" y="385"/>
      <point x="360" y="385" type="curve" smooth="yes"/>
      <point x="270" y="385" type="line" smooth="yes"/>
      <point x="204" y="385"/>
      <point x="156" y="427"/>
      <point x="156" y="486" type="curve" smooth="yes"/>
      <point x="156" y="545"/>
      <point x="204" y="584"/>
      <point x="270" y="584" type="curve" smooth="yes"/>
      <point x="303" y="584"/>
      <point x="342" y="572"/>
      <point x="362" y="556" type="curve"/>
      <point x="386" y="636" type="line"/>
      <point x="364" y="651"/>
      <point x="316" y="662"/>
      <point x="272" y="662" type="curve" smooth="yes"/>
      <point x="157" y="662"/>
      <point x="74" y="589"/>
      <point x="74" y="494" type="curve" smooth="yes"/>
      <point x="74" y="433"/>
      <point x="108" y="379"/>
      <point x="172" y="348" type="curve"/>
      <point x="92" y="316"/>
      <point x="48" y="255"/>
      <point x="48" y="180" type="curve" smooth="yes"/>
      <point x="48" y="67"/>
      <point x="147" y="-12"/>
    </contour>
    <contour>
      <point x="270" y="70" type="curve" smooth="yes"/>
      <point x="191" y="70"/>
      <point x="134" y="120"/>
      <point x="134" y="188" type="curve" smooth="yes"/>
      <point x="134" y="254"/>
      <point x="189" y="307"/>
      <point x="270" y="307" type="curve" smooth="yes"/>
      <point x="410" y="307" type="line"/>
      <point x="410" y="188" type="line" smooth="yes"/>
      <point x="410" y="120"/>
      <point x="351" y="70"/>
    </contour>
  </outline>
</glyph>
<glyph name="parenleft" format="2">
  <advance width="268"/>
  <unicode hex="0028"/>
  <outline>
    <contour>
      <point x="148" y="-212" type="curve"/>
      <point x="224" y="-196" type="line"/>
      <point x="169" y="-74"/>
      <point x="140" y="73"/>
      <point x="140" y="238" type="curve" smooth="yes"/>
      <point x="140" y="401"/>
      <point x="168" y="547"/>
      <point x="220" y="668" type="curve"/>
      <point x="146" y="684" type="line"/>
      <point x="82" y="548"/>
      <point x="48" y="394"/>
      <point x="48" y="240" type="curve" smooth="yes"/>
      <point x="48" y="88"/>
      <point x="83" y="-68"/>
    </contour>
  </outline>
</glyph>
<glyph name="asterisk" format="2">
  <advance width="356"/>
  <unicode hex="002A"/>
  <outline>
    <contour>
      <point x="140" y="368" type="line"/>
      <point x="216" y="368" type="line"/>
      <point x="198" y="490" type="line"/>
      <point x="294" y="413" type="line"/>
      <point x="332" y="479" type="line"/>
      <point x="217" y="524" type="line"/>
      <point x="332" y="569" type="line"/>
      <point x="294" y="635" type="line"/>
      <point x="198" y="558" type="line"/>
      <point x="216" y="680" type="line"/>
      <point x="140" y="680" type="line"/>
      <point x="158" y="558" type="line"/>
      <point x="62" y="635" type="line"/>
      <point x="24" y="569" type="line"/>
      <point x="139" y="524" type="line"/>
      <point x="24" y="479" type="line"/>
      <point x="62" y="413" type="line"/>
      <point x="158" y="490" type="line"/>
    </contour>
  </outline>
</glyph>
<glyph name="plus" format="2">
  <advance width="600"/>
  <unicode hex="002B"/>
  <outline>
    <contour>
      <point x="258" y="94" type="line"/>
      <point x="342" y="94" type="line"/>
      <point x="342" y="542" type="line"/>
      <point x="258" y="542" type="line"/>
    </contour>
    <component base="minus"/>
  </outline>
</glyph>
<glyph name="hyphen" format="2">
  <advance width="396"/>
  <unicode hex="002D"/>
  <outline>
    <contour>
      <point x="24" y="219" type="line"/>
      <point x="372" y="219" type="line"/>
      <point x="372" y="297" type="line"/>
      <point x="24" y="297" type="line"/>
    </contour>
  </outline>
</glyph>
<glyph name="slash" format="2">
  <advance width="244"/>
  <unicode hex="002F"/>
  <outline>
    <contour>
      <point x="72" y="-204" type="line"/>
      <point x="240" y="672" type="line"/>
      <point x="162" y="684" type="line"/>
      <point x="-8" y="-192" type="line"/>
    </contour>
  </outline>
</glyph>
<glyph name="zero" format="2">
  <advance width="632"/>
  <unicode hex="0030"/>
  <outline>
    <contour>
      <point x="316" y="-12" type="curve" smooth="yes"/>
      <point x="478" y="-12"/>
      <point x="592" y="128"/>
      <point x="592" y="325" type="curve" smooth="yes"/>
      <point x="592" y="522"/>
      <point x="478" y="662"/>
      <point x="316" y="662" type="curve" smooth="yes"/>
      <point x="154" y="662"/>
      <point x="40" y="522"/>
      <point x="40" y="325" type="curve" smooth="yes"/>
      <point x="40" y="128"/>
      <point x="154" y="-12"/>
    </contour>
    <contour>
      <point x="316" y="72" type="curve" smooth="yes"/>
      <point x="206" y="72"/>
      <point x="128" y="177"/>
      <point x="128" y="326" type="curve" smooth="yes"/>
      <point x="128" y="475"/>
      <point x="206" y="580"/>
      <point x="316" y="580" type="curve" smooth="yes"/>
      <point x="426" y="580"/>
      <point x="504" y="475"/>
      <point x="504" y="326" type="curve" smooth="yes"/>
      <point x="504" y="177"/>
      <point x="426" y="72"/>
    </contour>
  </outline>
</glyph>
<glyph name="one" format="2">
  <advance width="288"/>
  <unicode hex="0031"/>
  <outline>
    <contour>
      <point x="140" y="0" type="line"/>
      <point x="224" y="0" type="line"/>
      <point x="224" y="650" type="line"/>
      <point x="144" y="650" type="line"/>
      <point x="144" y="608" type="line" smooth="yes"/>
      <point x="144" y="552"/>
      <point x="106" y="512"/>
      <point x="52" y="512" type="curve" smooth="yes"/>
      <point x="8" y="512" type="line"/>
      <point x="8" y="434" type="line"/>
      <point x="140" y="434" type="line"/>
    </contour>
  </outline>
</glyph>
<glyph name="two" format="2">
  <advance width="496"/>
  <unicode hex="0032"/>
  <outline>
    <contour>
      <point x="36" y="0" type="line"/>
      <point x="464" y="0" type="line"/>
      <point x="464" y="86" type="line"/>
      <point x="128" y="86" type="line"/>
      <point x="136" y="150"/>
      <point x="205" y="196"/>
      <point x="293" y="238" type="curve" smooth="yes"/>
      <point x="385" y="282"/>
      <point x="462" y="350"/>
      <point x="462" y="460" type="curve" smooth="yes"/>
      <point x="462" y="580"/>
      <point x="376" y="662"/>
      <point x="256" y="662" type="curve" smooth="yes"/>
      <point x="119" y="662"/>
      <point x="30" y="560"/>
      <point x="46" y="400" type="curve"/>
      <point x="136" y="412" type="line"/>
      <point x="120" y="504"/>
      <point x="176" y="580"/>
      <point x="260" y="580" type="curve" smooth="yes"/>
      <point x="330" y="580"/>
      <point x="380" y="527"/>
      <point x="380" y="452" type="curve" smooth="yes"/>
      <point x="380" y="360"/>
      <point x="304" y="320"/>
      <point x="232" y="288" type="curve" smooth="yes"/>
      <point x="105" y="232"/>
      <point x="36" y="160"/>
      <point x="36" y="20" type="curve" smooth="yes"/>
    </contour>
  </outline>
</glyph>
<glyph name="three" format="2">
  <advance width="532"/>
  <unicode hex="0033"/>
  <outline>
    <contour>
      <point x="264" y="-12" type="curve" smooth="yes"/>
      <point x="397" y="-12"/>
      <point x="492" y="78"/>
      <point x="492" y="204" type="curve" smooth="yes"/>
      <point x="492" y="324"/>
      <point x="404" y="412"/>
      <point x="284" y="416" type="curve"/>
      <point x="288" y="404" type="line"/>
      <point x="472" y="568" type="line"/>
      <point x="472" y="650" type="line"/>
      <point x="64" y="650" type="line"/>
      <point x="64" y="570" type="line"/>
      <point x="368" y="570" type="line"/>
      <point x="168" y="388" type="line"/>
      <point x="224" y="328" type="line"/>
      <point x="320" y="360"/>
      <point x="404" y="298"/>
      <point x="404" y="206" type="curve" smooth="yes"/>
      <point x="404" y="128"/>
      <point x="346" y="72"/>
      <point x="266" y="72" type="curve" smooth="yes"/>
      <point x="176" y="72"/>
      <point x="113" y="142"/>
      <point x="120" y="240" type="curve"/>
      <point x="32" y="214" type="line"/>
      <point x="32" y="82"/>
      <point x="129" y="-12"/>
    </contour>
  </outline>
</glyph>
<glyph name="four" format="2">
  <advance width="532"/>
  <unicode hex="0034"/>
  <outline>
    <contour>
      <point x="16" y="152" type="line"/>
      <point x="528" y="152" type="line"/>
      <point x="528" y="232" type="line"/>
      <point x="104" y="232" type="line"/>
      <point x="192" y="308"/>
      <point x="248" y="440"/>
      <point x="248" y="592" type="curve" smooth="yes"/>
      <point x="248" y="650" type="line"/>
      <point x="164" y="650" type="line"/>
      <point x="164" y="568" type="line" smooth="yes"/>
      <point x="164" y="427"/>
      <point x="109" y="305"/>
      <point x="16" y="240" type="curve"/>
    </contour>
    <contour>
      <point x="336" y="0" type="line"/>
      <point x="420" y="0" type="line"/>
      <point x="420" y="540" type="line"/>
      <point x="336" y="524" type="line"/>
    </contour>
  </outline>
</glyph>
<glyph name="five" format="2">
  <advance width="544"/>
  <unicode hex="0035"/>
  <note>
alto
</note>
  <outline>
    <contour>
      <point x="276" y="-12" type="curve" smooth="yes"/>
      <point x="411" y="-12"/>
      <point x="508" y="83"/>
      <point x="508" y="216" type="curve" smooth="yes"/>
      <point x="508" y="349"/>
      <point x="415" y="444"/>
      <point x="286" y="444" type="curve" smooth="yes"/>
      <point x="226" y="444"/>
      <point x="165" y="422"/>
      <point x="136" y="388" type="curve"/>
      <point x="148" y="384" type="line"/>
      <point x="176" y="570" type="line"/>
      <point x="480" y="570" type="line"/>
      <point x="480" y="650" type="line"/>
      <point x="104" y="650" type="line"/>
      <point x="64" y="332" type="line"/>
      <point x="152" y="308" type="line"/>
      <point x="176" y="344"/>
      <point x="224" y="368"/>
      <point x="276" y="368" type="curve" smooth="yes"/>
      <point x="360" y="368"/>
      <point x="420" y="306"/>
      <point x="420" y="220" type="curve" smooth="yes"/>
      <point x="420" y="134"/>
      <point x="359" y="72"/>
      <point x="274" y="72" type="curve" smooth="yes"/>
      <point x="184" y="72"/>
      <point x="120" y="144"/>
      <point x="128" y="240" type="curve"/>
      <point x="40" y="214" type="line"/>
      <point x="40" y="82"/>
      <point x="141" y="-12"/>
    </contour>
  </outline>
</glyph>
<glyph name="six" format="2">
  <advance width="564"/>
  <unicode hex="0036"/>
  <outline>
    <contour>
      <point x="294" y="-12" type="curve" smooth="yes"/>
      <point x="427" y="-12"/>
      <point x="524" y="86"/>
      <point x="524" y="220" type="curve" smooth="yes"/>
      <point x="524" y="350"/>
      <point x="433" y="444"/>
      <point x="306" y="444" type="curve" smooth="yes"/>
      <point x="219" y="444"/>
      <point x="146" y="401"/>
      <point x="122" y="336" type="curve"/>
      <point x="128" y="334" type="line"/>
      <point x="128" y="475"/>
      <point x="205" y="582"/>
      <point x="304" y="582" type="curve" smooth="yes"/>
      <point x="363" y="582"/>
      <point x="410" y="541"/>
      <point x="420" y="474" type="curve"/>
      <point x="516" y="502" type="line"/>
      <point x="492" y="600"/>
      <point x="410" y="662"/>
      <point x="312" y="662" type="curve" smooth="yes"/>
      <point x="158" y="662"/>
      <point x="44" y="521"/>
      <point x="44" y="320" type="curve" smooth="yes"/>
      <point x="44" y="125"/>
      <point x="147" y="-12"/>
    </contour>
    <contour>
      <point x="294" y="72" type="curve" smooth="yes"/>
      <point x="212" y="72"/>
      <point x="148" y="137"/>
      <point x="148" y="219" type="curve" smooth="yes"/>
      <point x="148" y="303"/>
      <point x="210" y="366"/>
      <point x="294" y="366" type="curve" smooth="yes"/>
      <point x="377" y="366"/>
      <point x="436" y="305"/>
      <point x="436" y="219" type="curve" smooth="yes"/>
      <point x="436" y="134"/>
      <point x="376" y="72"/>
    </contour>
  </outline>
</glyph>
<glyph name="seven" format="2">
  <advance width="448"/>
  <unicode hex="0037"/>
  <outline>
    <contour>
      <point x="120" y="0" type="curve"/>
      <point x="212" y="0" type="line"/>
      <point x="212" y="4" type="line" smooth="yes"/>
      <point x="212" y="232"/>
      <point x="296" y="428"/>
      <point x="444" y="564" type="curve"/>
      <point x="444" y="650" type="line"/>
      <point x="12" y="650" type="line"/>
      <point x="12" y="568" type="line"/>
      <point x="364" y="568" type="line"/>
      <point x="208" y="432"/>
      <point x="120" y="232"/>
    </contour>
  </outline>
</glyph>
<glyph name="eight" format="2">
  <advance width="548"/>
  <unicode hex="0038"/>
  <outline>
    <contour>
      <point x="274" y="-12" type="curve" smooth="yes"/>
      <point x="405" y="-12"/>
      <point x="500" y="66"/>
      <point x="500" y="178" type="curve" smooth="yes"/>
      <point x="500" y="257"/>
      <point x="452" y="322"/>
      <point x="378" y="348" type="curve"/>
      <point x="440" y="372"/>
      <point x="476" y="423"/>
      <point x="476" y="488" type="curve" smooth="yes"/>
      <point x="476" y="589"/>
      <point x="390" y="662"/>
      <point x="274" y="662" type="curve" smooth="yes"/>
      <point x="159" y="662"/>
      <point x="72" y="589"/>
      <point x="72" y="488" type="curve" smooth="yes"/>
      <point x="72" y="423"/>
      <point x="108" y="372"/>
      <point x="170" y="348" type="curve"/>
      <point x="96" y="322"/>
      <point x="48" y="257"/>
      <point x="48" y="178" type="curve" smooth="yes"/>
      <point x="48" y="66"/>
      <point x="143" y="-12"/>
    </contour>
    <contour>
      <point x="274" y="70" type="curve" smooth="yes"/>
      <point x="192" y="70"/>
      <point x="134" y="119"/>
      <point x="134" y="188" type="curve" smooth="yes"/>
      <point x="134" y="258"/>
      <point x="192" y="308"/>
      <point x="274" y="308" type="curve" smooth="yes"/>
      <point x="356" y="308"/>
      <point x="414" y="258"/>
      <point x="414" y="188" type="curve" smooth="yes"/>
      <point x="414" y="119"/>
      <point x="356" y="70"/>
    </contour>
    <contour>
      <point x="274" y="384" type="curve" smooth="yes"/>
      <point x="204" y="384"/>
      <point x="154" y="425"/>
      <point x="154" y="484" type="curve" smooth="yes"/>
      <point x="154" y="543"/>
      <point x="204" y="584"/>
      <point x="274" y="584" type="curve" smooth="yes"/>
      <point x="344" y="584"/>
      <point x="394" y="543"/>
      <point x="394" y="484" type="curve" smooth="yes"/>
      <point x="394" y="425"/>
      <point x="344" y="384"/>
    </contour>
  </outline>
</glyph>
<glyph name="nine" format="2">
  <advance width="542"/>
  <unicode hex="0039"/>
  <outline>
    <contour>
      <point x="240" y="-12" type="curve" smooth="yes"/>
      <point x="394" y="-12"/>
      <point x="498" y="123"/>
      <point x="498" y="336" type="curve" smooth="yes"/>
      <point x="498" y="540"/>
      <point x="408" y="662"/>
      <point x="260" y="662" type="curve" smooth="yes"/>
      <point x="134" y="662"/>
      <point x="40" y="569"/>
      <point x="40" y="442" type="curve" smooth="yes"/>
      <point x="40" y="315"/>
      <point x="136" y="224"/>
      <point x="254" y="224" type="curve" smooth="yes"/>
      <point x="333" y="224"/>
      <point x="397" y="265"/>
      <point x="420" y="323" type="curve"/>
      <point x="418" y="324" type="line"/>
      <point x="414" y="168"/>
      <point x="342" y="70"/>
      <point x="244" y="70" type="curve" smooth="yes"/>
      <point x="179" y="70"/>
      <point x="134" y="115"/>
      <point x="132" y="188" type="curve"/>
      <point x="36" y="164" type="line"/>
      <point x="47" y="59"/>
      <point x="131" y="-12"/>
    </contour>
    <contour>
      <point x="260" y="304" type="curve" smooth="yes"/>
      <point x="182" y="304"/>
      <point x="126" y="363"/>
      <point x="126" y="444" type="curve" smooth="yes"/>
      <point x="126" y="525"/>
      <point x="182" y="584"/>
      <point x="260" y="584" type="curve" smooth="yes"/>
      <point x="338" y="584"/>
      <point x="394" y="525"/>
      <point x="394" y="444" type="curve" smooth="yes"/>
      <point x="394" y="363"/>
      <point x="338" y="304"/>
    </contour>
  </outline>
</glyph>
<glyph name="equal" format="2">
  <advance width="600"/>
  <unicode hex="003D"/>
  <outline>
    <contour>
      <point x="92" y="367" type="line"/>
      <point x="508" y="367" type="line"/>
      <point x="508" y="450" type="line"/>
      <point x="92" y="450" type="line"/>
    </contour>
    <contour>
      <point x="92" y="190" type="line"/>
      <point x="508" y="190" type="line"/>
      <point x="508" y="274" type="line"/>
      <point x="92" y="274" type="line"/>
    </contour>
  </outline>
</glyph>
<glyph name="greater" format="2">
  <advance width="600"/>
  <unicode hex="003E"/>
  <outline>
    <contour>
      <point x="100" y="112" type="line"/>
      <point x="520" y="268" type="line"/>
      <point x="520" y="360" type="line"/>
      <point x="102" y="524" type="line"/>
      <point x="94" y="436" type="line"/>
      <point x="416" y="316" type="line"/>
      <point x="92" y="204" type="line"/>
    </contour>
  </outline>
</glyph>
<glyph name="question" format="2">
  <advance width="444"/>
  <unicode hex="003F"/>
  <outline>
    <contour>
      <point x="164" y="192" type="line"/>
      <point x="232" y="192" type="line"/>
      <point x="244" y="320"/>
      <point x="426" y="324"/>
      <point x="426" y="500" type="curve" smooth="yes"/>
      <point x="426" y="612"/>
      <point x="350" y="692"/>
      <point x="232" y="692" type="curve" smooth="yes"/>
      <point x="96" y="692"/>
      <point x="6" y="588"/>
      <point x="22" y="432" type="curve"/>
      <point x="114" y="440" type="line"/>
      <point x="98" y="528"/>
      <point x="136" y="610"/>
      <point x="228" y="610" type="curve" smooth="yes"/>
      <point x="295" y="610"/>
      <point x="340" y="568"/>
      <point x="340" y="496" type="curve" smooth="yes"/>
      <point x="340" y="360"/>
      <point x="164" y="356"/>
      <point x="164" y="200" type="curve" smooth="yes"/>
    </contour>
    <component base="period" xOffset="108"/>
  </outline>
</glyph>
<glyph name="at" format="2">
  <advance width="776"/>
  <unicode hex="0040"/>
  <outline>
    <contour>
      <point x="389" y="-56" type="curve" smooth="yes"/>
      <point x="464" y="-56"/>
      <point x="545" y="-35"/>
      <point x="586" y="-6" type="curve"/>
      <point x="538" y="66" type="line"/>
      <point x="507" y="42"/>
      <point x="446" y="24"/>
      <point x="387" y="24" type="curve" smooth="yes"/>
      <point x="242" y="24"/>
      <point x="120" y="135"/>
      <point x="120" y="306" type="curve" smooth="yes"/>
      <point x="120" y="470"/>
      <point x="234" y="588"/>
      <point x="391" y="588" type="curve" smooth="yes"/>
      <point x="553" y="588"/>
      <point x="658" y="462"/>
      <point x="658" y="311" type="curve" smooth="yes"/>
      <point x="658" y="231"/>
      <point x="625" y="176"/>
      <point x="586" y="176" type="curve" smooth="yes"/>
      <point x="566" y="176"/>
      <point x="558" y="187"/>
      <point x="558" y="212" type="curve" smooth="yes"/>
      <point x="558" y="488" type="line"/>
      <point x="490" y="488" type="line"/>
      <point x="484" y="415" type="line"/>
      <point x="515" y="307" type="line"/>
      <point x="492" y="182" type="line"/>
      <point x="492" y="133"/>
      <point x="526" y="102"/>
      <point x="574" y="102" type="curve" smooth="yes"/>
      <point x="663" y="102"/>
      <point x="740" y="191"/>
      <point x="740" y="321" type="curve" smooth="yes"/>
      <point x="740" y="508"/>
      <point x="602" y="666"/>
      <point x="391" y="666" type="curve" smooth="yes"/>
      <point x="185" y="666"/>
      <point x="36" y="514"/>
      <point x="36" y="305" type="curve" smooth="yes"/>
      <point x="36" y="91"/>
      <point x="191" y="-56"/>
    </contour>
    <contour>
      <point x="376" y="105" type="curve" smooth="yes"/>
      <point x="476" y="105"/>
      <point x="532" y="189"/>
      <point x="532" y="302" type="curve" smooth="yes"/>
      <point x="532" y="417"/>
      <point x="475" y="499"/>
      <point x="376" y="499" type="curve" smooth="yes"/>
      <point x="278" y="499"/>
      <point x="196" y="418"/>
      <point x="196" y="302" type="curve" smooth="yes"/>
      <point x="196" y="186"/>
      <point x="276" y="105"/>
    </contour>
    <contour>
      <point x="388" y="183" type="curve" smooth="yes"/>
      <point x="323" y="183"/>
      <point x="278" y="232"/>
      <point x="278" y="302" type="curve" smooth="yes"/>
      <point x="278" y="372"/>
      <point x="323" y="423"/>
      <point x="388" y="423" type="curve" smooth="yes"/>
      <point x="453" y="423"/>
      <point x="498" y="373"/>
      <point x="498" y="303" type="curve" smooth="yes"/>
      <point x="498" y="233"/>
      <point x="453" y="183"/>
    </contour>
  </outline>
</glyph>
<glyph name="A" format="2">
  <advance width="608"/>
  <unicode hex="0041"/>
  <anchor x="564" y="0" name="ogonek"/>
  <anchor x="304" y="650" name="top"/>
  <outline>
    <contour>
      <point x="4" y="0" type="line"/>
      <point x="100" y="0" type="line"/>
      <point x="302" y="540" type="line"/>
      <point x="508" y="0" type="line"/>
      <point x="604" y="0" type="line"/>
      <point x="348" y="650" type="line"/>
      <point x="260" y="650" type="line"/>
    </contour>
    <contour>
      <point x="144" y="176" type="line"/>
      <point x="464" y="176" type="line"/>
      <point x="464" y="256" type="line"/>
      <point x="144" y="256" type="line"/>
    </contour>
  </outline>
</glyph>
<glyph name="B" format="2">
  <advance width="592"/>
  <unicode hex="0042"/>
  <outline>
    <contour>
      <point x="128" y="0" type="line"/>
      <point x="372" y="0" type="line" smooth="yes"/>
      <point x="482" y="0"/>
      <point x="560" y="73"/>
      <point x="560" y="176" type="curve" smooth="yes"/>
      <point x="560" y="256"/>
      <point x="508" y="318"/>
      <point x="428" y="338" type="curve"/>
      <point x="496" y="358"/>
      <point x="538" y="416"/>
      <point x="538" y="484" type="curve" smooth="yes"/>
      <point x="538" y="581"/>
      <point x="459" y="650"/>
      <point x="348" y="650" type="curve" smooth="yes"/>
      <point x="128" y="650" type="line"/>
      <point x="128" y="570" type="line"/>
      <point x="340" y="570" type="line" smooth="yes"/>
      <point x="405" y="570"/>
      <point x="452" y="528"/>
      <point x="452" y="471" type="curve" smooth="yes"/>
      <point x="452" y="414"/>
      <point x="405" y="372"/>
      <point x="340" y="372" type="curve" smooth="yes"/>
      <point x="128" y="372" type="line"/>
      <point x="128" y="292" type="line"/>
      <point x="356" y="292" type="line" smooth="yes"/>
      <point x="424" y="292"/>
      <point x="474" y="248"/>
      <point x="474" y="187" type="curve" smooth="yes"/>
      <point x="474" y="126"/>
      <point x="424" y="82"/>
      <point x="356" y="82" type="curve" smooth="yes"/>
      <point x="128" y="82" type="line"/>
    </contour>
    <contour>
      <point x="64" y="0" type="line"/>
      <point x="148" y="0" type="line"/>
      <point x="148" y="650" type="line"/>
      <point x="64" y="650" type="line"/>
    </contour>
  </outline>
</glyph>
<glyph name="C" format="2">
  <advance width="664"/>
  <unicode hex="0043"/>
  <anchor x="348" y="0" name="bottom"/>
  <anchor x="344" y="650" name="top"/>
  <outline>
    <contour>
      <point x="350" y="-12" type="curve" smooth="yes"/>
      <point x="498" y="-12"/>
      <point x="608" y="84"/>
      <point x="632" y="224" type="curve"/>
      <point x="542" y="252" type="line"/>
      <point x="530" y="144"/>
      <point x="453" y="72"/>
      <point x="350" y="72" type="curve" smooth="yes"/>
      <point x="220" y="72"/>
      <point x="126" y="178"/>
      <point x="126" y="325" type="curve" smooth="yes"/>
      <point x="126" y="473"/>
      <point x="218" y="580"/>
      <point x="344" y="580" type="curve" smooth="yes"/>
      <point x="439" y="580"/>
      <point x="520" y="508"/>
      <point x="536" y="408" type="curve"/>
      <point x="624" y="440" type="line"/>
      <point x="600" y="572"/>
      <point x="485" y="662"/>
      <point x="344" y="662" type="curve" smooth="yes"/>
      <point x="165" y="662"/>
      <point x="36" y="520"/>
      <point x="36" y="325" type="curve" smooth="yes"/>
      <point x="36" y="130"/>
      <point x="168" y="-12"/>
    </contour>
  </outline>
</glyph>
<glyph name="D" format="2">
  <advance width="660"/>
  <unicode hex="0044"/>
  <anchor x="292" y="650" name="top"/>
  <outline>
    <contour>
      <point x="128" y="0" type="line"/>
      <point x="324" y="0" type="line" smooth="yes"/>
      <point x="501" y="0"/>
      <point x="624" y="142"/>
      <point x="624" y="326" type="curve" smooth="yes"/>
      <point x="624" y="520"/>
      <point x="487" y="650"/>
      <point x="308" y="650" type="curve" smooth="yes"/>
      <point x="128" y="650" type="line"/>
      <point x="128" y="570" type="line"/>
      <point x="304" y="570" type="line" smooth="yes"/>
      <point x="439" y="570"/>
      <point x="536" y="467"/>
      <point x="536" y="324" type="curve" smooth="yes"/>
      <point x="536" y="184"/>
      <point x="444" y="82"/>
      <point x="316" y="82" type="curve" smooth="yes"/>
      <point x="128" y="82" type="line"/>
    </contour>
    <contour>
      <point x="64" y="0" type="line"/>
      <point x="148" y="0" type="line"/>
      <point x="148" y="650" type="line"/>
      <point x="64" y="650" type="line"/>
    </contour>
  </outline>
</glyph>
<glyph name="E" format="2">
  <advance width="548"/>
  <unicode hex="0045"/>
  <anchor x="516" y="0" name="ogonek"/>
  <anchor x="288" y="650" name="top"/>
  <outline>
    <contour>
      <point x="64" y="0" type="line"/>
      <point x="148" y="0" type="line"/>
      <point x="148" y="650" type="line"/>
      <point x="64" y="650" type="line"/>
    </contour>
    <contour>
      <point x="128" y="0" type="line"/>
      <point x="516" y="0" type="line"/>
      <point x="516" y="82" type="line"/>
      <point x="128" y="82" type="line"/>
    </contour>
    <contour>
      <point x="128" y="292" type="line"/>
      <point x="460" y="292" type="line"/>
      <point x="460" y="372" type="line"/>
      <point x="128" y="372" type="line"/>
    </contour>
    <contour>
      <point x="128" y="570" type="line"/>
      <point x="508" y="570" type="line"/>
      <point x="508" y="650" type="line"/>
      <point x="128" y="650" type="line"/>
    </contour>
  </outline>
</glyph>
<glyph name="F" format="2">
  <advance width="528"/>
  <unicode hex="0046"/>
  <outline>
    <contour>
      <point x="64" y="0" type="line"/>
      <point x="148" y="0" type="line"/>
      <point x="148" y="650" type="line"/>
      <point x="64" y="650" type="line"/>
    </contour>
    <contour>
      <point x="128" y="276" type="line"/>
      <point x="468" y="276" type="line"/>
      <point x="468" y="356" type="line"/>
      <point x="128" y="356" type="line"/>
    </contour>
    <contour>
      <point x="128" y="570" type="line"/>
      <point x="504" y="570" type="line"/>
      <point x="504" y="650" type="line"/>
      <point x="128" y="650" type="line"/>
    </contour>
  </outline>
</glyph>
<glyph name="G" format="2">
  <advance width="696"/>
  <unicode hex="0047"/>
  <anchor x="352" y="0" name="bottom"/>
  <anchor x="348" y="650" name="top"/>
  <outline>
    <contour>
      <point x="340" y="-12" type="curve" smooth="yes"/>
      <point x="482" y="-12"/>
      <point x="584" y="84"/>
      <point x="584" y="216" type="curve"/>
      <point x="584" y="300" type="line"/>
      <point x="558" y="300" type="line"/>
      <point x="558" y="268" type="line"/>
      <point x="554" y="155"/>
      <point x="465" y="72"/>
      <point x="348" y="72" type="curve" smooth="yes"/>
      <point x="217" y="72"/>
      <point x="124" y="179"/>
      <point x="124" y="327" type="curve" smooth="yes"/>
      <point x="124" y="473"/>
      <point x="217" y="580"/>
      <point x="344" y="580" type="curve" smooth="yes"/>
      <point x="445" y="580"/>
      <point x="525" y="512"/>
      <point x="536" y="416" type="curve"/>
      <point x="632" y="448" type="line"/>
      <point x="609" y="572"/>
      <point x="489" y="662"/>
      <point x="346" y="662" type="curve" smooth="yes"/>
      <point x="166" y="662"/>
      <point x="36" y="519"/>
      <point x="36" y="325" type="curve" smooth="yes"/>
      <point x="36" y="130"/>
      <point x="164" y="-12"/>
    </contour>
    <contour>
      <point x="596" y="0" type="line"/>
      <point x="652" y="0" type="line"/>
      <point x="632" y="355" type="line"/>
      <point x="266" y="355" type="line"/>
      <point x="266" y="277" type="line"/>
      <point x="576" y="277" type="line"/>
      <point x="576" y="184" type="line"/>
    </contour>
  </outline>
</glyph>
<glyph name="H" format="2">
  <advance width="660"/>
  <unicode hex="0048"/>
  <outline>
    <contour>
      <point x="512" y="0" type="line"/>
      <point x="596" y="0" type="line"/>
      <point x="596" y="650" type="line"/>
      <point x="512" y="650" type="line"/>
    </contour>
    <contour>
      <point x="64" y="0" type="line"/>
      <point x="148" y="0" type="line"/>
      <point x="148" y="650" type="line"/>
      <point x="64" y="650" type="line"/>
    </contour>
    <contour>
      <point x="128" y="292" type="line"/>
      <point x="532" y="292" type="line"/>
      <point x="532" y="372" type="line"/>
      <point x="128" y="372" type="line"/>
    </contour>
  </outline>
</glyph>
<glyph name="I" format="2">
  <advance width="212"/>
  <unicode hex="0049"/>
  <anchor x="148" y="0" name="ogonek"/>
  <anchor x="106" y="650" name="top"/>
  <outline>
    <contour>
      <point x="64" y="0" type="line"/>
      <point x="148" y="0" type="line"/>
      <point x="148" y="650" type="line"/>
      <point x="64" y="650" type="line"/>
    </contour>
  </outline>
</glyph>
<glyph name="J" format="2">
  <advance width="568"/>
  <unicode hex="004A"/>
  <outline>
    <contour>
      <point x="280" y="-12" type="curve" smooth="yes"/>
      <point x="415" y="-12"/>
      <point x="512" y="88"/>
      <point x="512" y="228" type="curve" smooth="yes"/>
      <point x="512" y="650" type="line"/>
      <point x="428" y="650" type="line"/>
      <point x="428" y="228" type="line" smooth="yes"/>
      <point x="428" y="137"/>
      <point x="367" y="72"/>
      <point x="281" y="72" type="curve" smooth="yes"/>
      <point x="195" y="72"/>
      <point x="134" y="137"/>
      <point x="134" y="228" type="curve" smooth="yes"/>
      <point x="134" y="344" type="line"/>
      <point x="48" y="344" type="line"/>
      <point x="48" y="224" type="line" smooth="yes"/>
      <point x="48" y="86"/>
      <point x="145" y="-12"/>
    </contour>
  </outline>
</glyph>
<glyph name="K" format="2">
  <advance width="604"/>
  <unicode hex="004B"/>
  <anchor x="304" y="0" name="bottom"/>
  <anchor x="302" y="650" name="top"/>
  <outline>
    <contour>
      <point x="128" y="136" type="line"/>
      <point x="568" y="650" type="line"/>
      <point x="456" y="650" type="line"/>
      <point x="128" y="254" type="line"/>
    </contour>
    <contour>
      <point x="490" y="0" type="line"/>
      <point x="596" y="0" type="line"/>
      <point x="320" y="372" type="line"/>
      <point x="264" y="304" type="line"/>
    </contour>
    <component base="I"/>
  </outline>
</glyph>
<glyph name="L" format="2">
  <advance width="508"/>
  <unicode hex="004C"/>
  <anchor x="280" y="0" name="bottom"/>
  <anchor x="116" y="650" name="top"/>
  <anchor x="276" y="470" name="topright"/>
  <outline>
    <contour>
      <point x="64" y="0" type="line"/>
      <point x="148" y="0" type="line"/>
      <point x="148" y="650" type="line"/>
      <point x="64" y="650" type="line"/>
    </contour>
    <contour>
      <point x="128" y="0" type="line"/>
      <point x="500" y="0" type="line"/>
      <point x="500" y="82" type="line"/>
      <point x="128" y="82" type="line"/>
    </contour>
  </outline>
</glyph>
<glyph name="M" format="2">
  <advance width="784"/>
  <unicode hex="004D"/>
  <outline>
    <contour>
      <point x="64" y="0" type="line"/>
      <point x="148" y="0" type="line"/>
      <point x="148" y="528" type="line"/>
      <point x="354" y="2" type="line"/>
      <point x="436" y="2" type="line"/>
      <point x="636" y="528" type="line"/>
      <point x="636" y="0" type="line"/>
      <point x="720" y="0" type="line"/>
      <point x="720" y="650" type="line"/>
      <point x="598" y="650" type="line"/>
      <point x="396" y="116" type="line"/>
      <point x="190" y="650" type="line"/>
      <point x="64" y="650" type="line"/>
    </contour>
  </outline>
</glyph>
<glyph name="N" format="2">
  <advance width="660"/>
  <unicode hex="004E"/>
  <anchor x="324" y="0" name="bottom"/>
  <anchor x="332" y="650" name="top"/>
  <outline>
    <contour>
      <point x="64" y="0" type="line"/>
      <point x="148" y="0" type="line"/>
      <point x="148" y="524" type="line"/>
      <point x="500" y="0" type="line"/>
      <point x="596" y="0" type="line"/>
      <point x="596" y="650" type="line"/>
      <point x="512" y="650" type="line"/>
      <point x="512" y="122" type="line"/>
      <point x="168" y="650" type="line"/>
      <point x="64" y="650" type="line"/>
    </contour>
  </outline>
</glyph>
<glyph name="O" format="2">
  <advance width="704"/>
  <unicode hex="004F"/>
  <anchor x="352" y="650" name="top"/>
  <outline>
    <contour>
      <point x="352" y="-12" type="curve" smooth="yes"/>
      <point x="535" y="-12"/>
      <point x="668" y="130"/>
      <point x="668" y="325" type="curve" smooth="yes"/>
      <point x="668" y="520"/>
      <point x="535" y="662"/>
      <point x="352" y="662" type="curve" smooth="yes"/>
      <point x="169" y="662"/>
      <point x="36" y="520"/>
      <point x="36" y="325" type="curve" smooth="yes"/>
      <point x="36" y="130"/>
      <point x="169" y="-12"/>
    </contour>
    <contour>
      <point x="352" y="72" type="curve" smooth="yes"/>
      <point x="220" y="72"/>
      <point x="124" y="178"/>
      <point x="124" y="325" type="curve" smooth="yes"/>
      <point x="124" y="473"/>
      <point x="220" y="580"/>
      <point x="352" y="580" type="curve" smooth="yes"/>
      <point x="484" y="580"/>
      <point x="580" y="473"/>
      <point x="580" y="325" type="curve" smooth="yes"/>
      <point x="580" y="178"/>
      <point x="484" y="72"/>
    </contour>
  </outline>
</glyph>
<glyph name="P" format="2">
  <advance width="560"/>
  <unicode hex="0050"/>
  <outline>
    <contour>
      <point x="128" y="240" type="line"/>
      <point x="334" y="240" type="line" smooth="yes"/>
      <point x="453" y="240"/>
      <point x="540" y="327"/>
      <point x="540" y="446" type="curve" smooth="yes"/>
      <point x="540" y="564"/>
      <point x="455" y="650"/>
      <point x="338" y="650" type="curve" smooth="yes"/>
      <point x="128" y="650" type="line"/>
      <point x="128" y="570" type="line"/>
      <point x="334" y="570" type="line" smooth="yes"/>
      <point x="402" y="570"/>
      <point x="452" y="518"/>
      <point x="452" y="445" type="curve" smooth="yes"/>
      <point x="452" y="372"/>
      <point x="402" y="320"/>
      <point x="334" y="320" type="curve" smooth="yes"/>
      <point x="128" y="320" type="line"/>
    </contour>
    <contour>
      <point x="64" y="0" type="line"/>
      <point x="148" y="0" type="line"/>
      <point x="148" y="650" type="line"/>
      <point x="64" y="650" type="line"/>
    </contour>
  </outline>
</glyph>
<glyph name="Q" format="2">
  <advance width="704"/>
  <unicode hex="0051"/>
  <outline>
    <contour>
      <point x="356" y="-12" type="curve" smooth="yes"/>
      <point x="542" y="-12"/>
      <point x="668" y="123"/>
      <point x="668" y="321" type="curve" smooth="yes"/>
      <point x="668" y="521"/>
      <point x="538" y="662"/>
      <point x="354" y="662" type="curve" smooth="yes"/>
      <point x="168" y="662"/>
      <point x="36" y="522"/>
      <point x="36" y="323" type="curve" smooth="yes"/>
      <point x="36" y="127"/>
      <point x="169" y="-12"/>
    </contour>
    <contour>
      <point x="580" y="-52" type="line"/>
      <point x="648" y="0" type="line"/>
      <point x="556" y="116" type="line"/>
      <point x="436" y="284" type="line"/>
      <point x="358" y="390" type="line"/>
      <point x="292" y="334" type="line"/>
      <point x="370" y="232" type="line"/>
      <point x="496" y="68" type="line"/>
    </contour>
    <contour>
      <point x="356" y="72" type="curve" smooth="yes"/>
      <point x="220" y="72"/>
      <point x="124" y="176"/>
      <point x="124" y="323" type="curve" smooth="yes"/>
      <point x="124" y="474"/>
      <point x="219" y="580"/>
      <point x="354" y="580" type="curve" smooth="yes"/>
      <point x="486" y="580"/>
      <point x="580" y="473"/>
      <point x="580" y="321" type="curve" smooth="yes"/>
      <point x="580" y="173"/>
      <point x="490" y="72"/>
    </contour>
  </outline>
</glyph>
<glyph name="R" format="2">
  <advance width="604"/>
  <unicode hex="0052"/>
  <anchor x="300" y="0" name="bottom"/>
  <anchor x="296" y="650" name="top"/>
  <outline>
    <contour>
      <point x="128" y="261" type="line"/>
      <point x="362" y="261" type="line" smooth="yes"/>
      <point x="475" y="261"/>
      <point x="556" y="342"/>
      <point x="556" y="455" type="curve" smooth="yes"/>
      <point x="556" y="568"/>
      <point x="475" y="650"/>
      <point x="362" y="650" type="curve" smooth="yes"/>
      <point x="128" y="650" type="line"/>
      <point x="128" y="570" type="line"/>
      <point x="358" y="570" type="line" smooth="yes"/>
      <point x="422" y="570"/>
      <point x="468" y="521"/>
      <point x="468" y="454" type="curve" smooth="yes"/>
      <point x="468" y="387"/>
      <point x="420" y="339"/>
      <point x="354" y="339" type="curve" smooth="yes"/>
      <point x="128" y="339" type="line"/>
    </contour>
    <contour>
      <point x="64" y="0" type="line"/>
      <point x="148" y="0" type="line"/>
      <point x="148" y="650" type="line"/>
      <point x="64" y="650" type="line"/>
    </contour>
    <contour>
      <point x="472" y="0" type="line"/>
      <point x="572" y="0" type="line"/>
      <point x="416" y="280" type="line"/>
      <point x="322" y="280" type="line"/>
    </contour>
  </outline>
</glyph>
<glyph name="T" format="2">
  <advance width="556"/>
  <unicode hex="0054"/>
  <anchor x="280" y="0" name="bottom"/>
  <anchor x="280" y="650" name="top"/>
  <outline>
    <contour>
      <point x="236" y="0" type="line"/>
      <point x="320" y="0" type="line"/>
      <point x="320" y="590" type="line"/>
      <point x="236" y="590" type="line"/>
    </contour>
    <contour>
      <point x="2" y="570" type="line"/>
      <point x="554" y="570" type="line"/>
      <point x="554" y="650" type="line"/>
      <point x="2" y="650" type="line"/>
    </contour>
  </outline>
</glyph>
<glyph name="V" format="2">
  <advance width="576"/>
  <unicode hex="0056"/>
  <outline>
    <contour>
      <point x="242" y="0" type="line"/>
      <point x="338" y="0" type="line"/>
      <point x="572" y="650" type="line"/>
      <point x="482" y="650" type="line"/>
      <point x="292" y="102" type="line"/>
      <point x="96" y="650" type="line"/>
      <point x="4" y="650" type="line"/>
    </contour>
  </outline>
</glyph>
<glyph name="W" format="2">
  <advance width="760"/>
  <unicode hex="0057"/>
  <note>
make alternate
</note>
  <outline>
    <contour>
      <point x="130" y="0" type="line"/>
      <point x="246" y="0" type="line"/>
      <point x="382" y="520" type="line"/>
      <point x="514" y="0" type="line"/>
      <point x="628" y="0" type="line"/>
      <point x="720" y="650" type="line"/>
      <point x="634" y="650" type="line"/>
      <point x="564" y="108" type="line"/>
      <point x="430" y="648" type="line"/>
      <point x="338" y="648" type="line"/>
      <point x="198" y="108" type="line"/>
      <point x="128" y="650" type="line"/>
      <point x="40" y="650" type="line"/>
    </contour>
  </outline>
</glyph>
<glyph name="X" format="2">
  <advance width="596"/>
  <unicode hex="0058"/>
  <outline>
    <contour>
      <point x="8" y="0" type="line"/>
      <point x="116" y="0" type="line"/>
      <point x="296" y="260" type="line"/>
      <point x="484" y="0" type="line"/>
      <point x="588" y="0" type="line"/>
      <point x="348" y="332" type="line"/>
      <point x="572" y="650" type="line"/>
      <point x="468" y="650" type="line"/>
      <point x="298" y="404" type="line"/>
      <point x="120" y="650" type="line"/>
      <point x="14" y="650" type="line"/>
      <point x="244" y="332" type="line"/>
    </contour>
  </outline>
</glyph>
<glyph name="Y" format="2">
  <advance width="560"/>
  <unicode hex="0059"/>
  <anchor x="288" y="650" name="top"/>
  <outline>
    <contour>
      <point x="247" y="0" type="line"/>
      <point x="331" y="0" type="line"/>
      <point x="331" y="196" type="line"/>
      <point x="558" y="650" type="line"/>
      <point x="462" y="650" type="line"/>
      <point x="289" y="296" type="line"/>
      <point x="100" y="650" type="line"/>
      <point x="2" y="650" type="line"/>
      <point x="247" y="196" type="line"/>
    </contour>
  </outline>
</glyph>
<glyph name="Z" format="2">
  <advance width="588"/>
  <unicode hex="005A"/>
  <anchor x="296" y="650" name="top"/>
  <outline>
    <contour>
      <point x="40" y="0" type="line"/>
      <point x="548" y="0" type="line"/>
      <point x="548" y="82" type="line"/>
      <point x="148" y="82" type="line"/>
      <point x="544" y="568" type="line"/>
      <point x="544" y="650" type="line"/>
      <point x="48" y="650" type="line"/>
      <point x="48" y="570" type="line"/>
      <point x="440" y="570" type="line"/>
      <point x="40" y="84" type="line"/>
    </contour>
  </outline>
</glyph>
<glyph name="bracketleft" format="2">
  <advance width="304"/>
  <unicode hex="005B"/>
  <outline>
    <contour>
      <point x="64" y="-200" type="line"/>
      <point x="148" y="-200" type="line"/>
      <point x="148" y="680" type="line"/>
      <point x="64" y="680" type="line"/>
    </contour>
    <contour>
      <point x="128" y="-200" type="line"/>
      <point x="302" y="-200" type="line"/>
      <point x="302" y="-118" type="line"/>
      <point x="128" y="-118" type="line"/>
    </contour>
    <contour>
      <point x="128" y="600" type="line"/>
      <point x="300" y="600" type="line"/>
      <point x="300" y="680" type="line"/>
      <point x="128" y="680" type="line"/>
    </contour>
  </outline>
</glyph>
<glyph name="backslash" format="2">
  <advance width="244"/>
  <unicode hex="005C"/>
  <outline>
    <contour>
      <point x="170" y="-204" type="line"/>
      <point x="252" y="-192" type="line"/>
      <point x="84" y="684" type="line"/>
      <point x="4" y="672" type="line"/>
    </contour>
  </outline>
</glyph>
<glyph name="asciicircum" format="2">
  <advance width="364"/>
  <unicode hex="005E"/>
  <outline>
    <contour>
      <point x="20" y="340" type="line"/>
      <point x="104" y="340" type="line"/>
      <point x="182" y="574" type="line"/>
      <point x="260" y="340" type="line"/>
      <point x="344" y="340" type="line"/>
      <point x="225" y="650" type="line"/>
      <point x="141" y="650" type="line"/>
    </contour>
  </outline>
</glyph>
<glyph name="underscore" format="2">
  <advance width="480"/>
  <unicode hex="005F"/>
  <outline>
    <contour>
      <point x="0" y="-112" type="line"/>
      <point x="480" y="-112" type="line"/>
      <point x="480" y="-28" type="line"/>
      <point x="0" y="-28" type="line"/>
    </contour>
  </outline>
</glyph>
<glyph name="a" format="2">
  <advance width="488"/>
  <unicode hex="0061"/>
  <anchor x="428" y="0" name="ogonek"/>
  <anchor x="246" y="500" name="top"/>
  <outline>
    <contour>
      <point x="196" y="-12" type="curve" smooth="yes"/>
      <point x="302" y="-12"/>
      <point x="380" y="60"/>
      <point x="384" y="160" type="curve"/>
      <point x="356" y="204" type="line"/>
      <point x="356" y="124"/>
      <point x="296" y="66"/>
      <point x="212" y="66" type="curve" smooth="yes"/>
      <point x="156" y="66"/>
      <point x="120" y="94"/>
      <point x="120" y="136" type="curve" smooth="yes"/>
      <point x="120" y="172"/>
      <point x="148" y="200"/>
      <point x="192" y="208" type="curve" smooth="yes"/>
      <point x="324" y="232" type="line" smooth="yes"/>
      <point x="347" y="236"/>
      <point x="369" y="242"/>
      <point x="376" y="244" type="curve"/>
      <point x="356" y="258" type="line"/>
      <point x="356" y="100" type="line"/>
      <point x="374" y="0" type="line"/>
      <point x="438" y="0" type="line"/>
      <point x="436" y="100" type="line"/>
      <point x="436" y="328" type="line" smooth="yes"/>
      <point x="436" y="435"/>
      <point x="358" y="512"/>
      <point x="248" y="512" type="curve" smooth="yes"/>
      <point x="141" y="512"/>
      <point x="58" y="438"/>
      <point x="48" y="334" type="curve"/>
      <point x="136" y="324" type="line"/>
      <point x="140" y="394"/>
      <point x="188" y="440"/>
      <point x="252" y="440" type="curve" smooth="yes"/>
      <point x="313" y="440"/>
      <point x="356" y="395"/>
      <point x="356" y="332" type="curve" smooth="yes"/>
      <point x="356" y="316"/>
      <point x="343" y="303"/>
      <point x="326" y="300" type="curve" smooth="yes"/>
      <point x="172" y="272" type="line" smooth="yes"/>
      <point x="87" y="257"/>
      <point x="32" y="201"/>
      <point x="32" y="132" type="curve" smooth="yes"/>
      <point x="32" y="45"/>
      <point x="97" y="-12"/>
    </contour>
  </outline>
</glyph>
<glyph name="b" format="2">
  <advance width="590"/>
  <unicode hex="0062"/>
  <outline>
    <contour>
      <point x="324" y="-12" type="curve" smooth="yes"/>
      <point x="460" y="-12"/>
      <point x="558" y="98"/>
      <point x="558" y="252" type="curve" smooth="yes"/>
      <point x="558" y="404"/>
      <point x="461" y="512"/>
      <point x="326" y="512" type="curve" smooth="yes"/>
      <point x="190" y="512"/>
      <point x="92" y="404"/>
      <point x="92" y="252" type="curve" smooth="yes"/>
      <point x="92" y="98"/>
      <point x="189" y="-12"/>
    </contour>
    <contour>
      <point x="64" y="0" type="line"/>
      <point x="132" y="0" type="line"/>
      <point x="144" y="100" type="line"/>
      <point x="118" y="250" type="line"/>
      <point x="144" y="370" type="line"/>
      <point x="144" y="680" type="line"/>
      <point x="64" y="680" type="line"/>
    </contour>
    <contour>
      <point x="308" y="68" type="curve" smooth="yes"/>
      <point x="211" y="68"/>
      <point x="142" y="144"/>
      <point x="142" y="250" type="curve" smooth="yes"/>
      <point x="142" y="357"/>
      <point x="211" y="434"/>
      <point x="308" y="434" type="curve" smooth="yes"/>
      <point x="405" y="434"/>
      <point x="474" y="357"/>
      <point x="474" y="250" type="curve" smooth="yes"/>
      <point x="474" y="144"/>
      <point x="405" y="68"/>
    </contour>
  </outline>
</glyph>
<glyph name="c" format="2">
  <advance width="532"/>
  <unicode hex="0063"/>
  <anchor x="268" y="0" name="bottom"/>
  <anchor x="272" y="500" name="top"/>
  <outline>
    <contour>
      <point x="276" y="-12" type="curve" smooth="yes"/>
      <point x="393" y="-12"/>
      <point x="488" y="65"/>
      <point x="504" y="172" type="curve"/>
      <point x="416" y="200" type="line"/>
      <point x="408" y="120"/>
      <point x="352" y="68"/>
      <point x="276" y="68" type="curve" smooth="yes"/>
      <point x="184" y="68"/>
      <point x="118" y="144"/>
      <point x="118" y="252" type="curve" smooth="yes"/>
      <point x="118" y="358"/>
      <point x="182" y="434"/>
      <point x="272" y="434" type="curve" smooth="yes"/>
      <point x="346" y="434"/>
      <point x="404" y="381"/>
      <point x="412" y="308" type="curve"/>
      <point x="496" y="336" type="line"/>
      <point x="480" y="439"/>
      <point x="387" y="512"/>
      <point x="272" y="512" type="curve" smooth="yes"/>
      <point x="132" y="512"/>
      <point x="32" y="403"/>
      <point x="32" y="250" type="curve" smooth="yes"/>
      <point x="32" y="97"/>
      <point x="134" y="-12"/>
    </contour>
  </outline>
</glyph>
<glyph name="d" format="2">
  <advance width="592"/>
  <unicode hex="0064"/>
  <anchor x="568" y="500" name="topright"/>
  <outline>
    <contour>
      <point x="266" y="-12" type="curve" smooth="yes"/>
      <point x="401" y="-12"/>
      <point x="498" y="97"/>
      <point x="498" y="249" type="curve" smooth="yes"/>
      <point x="498" y="402"/>
      <point x="400" y="512"/>
      <point x="264" y="512" type="curve" smooth="yes"/>
      <point x="129" y="512"/>
      <point x="32" y="404"/>
      <point x="32" y="252" type="curve" smooth="yes"/>
      <point x="32" y="98"/>
      <point x="130" y="-12"/>
    </contour>
    <contour>
      <point x="283" y="68" type="curve" smooth="yes"/>
      <point x="186" y="68"/>
      <point x="116" y="144"/>
      <point x="116" y="250" type="curve" smooth="yes"/>
      <point x="116" y="357"/>
      <point x="186" y="434"/>
      <point x="283" y="434" type="curve" smooth="yes"/>
      <point x="380" y="434"/>
      <point x="450" y="357"/>
      <point x="450" y="250" type="curve" smooth="yes"/>
      <point x="450" y="144"/>
      <point x="380" y="68"/>
    </contour>
    <contour>
      <point x="462" y="0" type="line"/>
      <point x="530" y="0" type="line"/>
      <point x="528" y="100" type="line"/>
      <point x="528" y="680" type="line"/>
      <point x="448" y="680" type="line"/>
      <point x="448" y="380" type="line"/>
      <point x="471" y="246" type="line"/>
      <point x="450" y="100" type="line"/>
    </contour>
  </outline>
</glyph>
<glyph name="e" format="2">
  <advance width="540"/>
  <unicode hex="0065"/>
  <anchor x="404" y="0" name="ogonek"/>
  <anchor x="272" y="500" name="top"/>
  <outline>
    <contour>
      <point x="280" y="-12" type="curve" smooth="yes"/>
      <point x="388" y="-12"/>
      <point x="478" y="48"/>
      <point x="502" y="136" type="curve"/>
      <point x="416" y="164" type="line"/>
      <point x="404" y="108"/>
      <point x="350" y="68"/>
      <point x="282" y="68" type="curve" smooth="yes"/>
      <point x="186" y="68"/>
      <point x="118" y="147"/>
      <point x="118" y="254" type="curve" smooth="yes"/>
      <point x="118" y="358"/>
      <point x="182" y="434"/>
      <point x="274" y="434" type="curve" smooth="yes"/>
      <point x="350" y="434"/>
      <point x="410" y="379"/>
      <point x="422" y="295" type="curve"/>
      <point x="98" y="295" type="line"/>
      <point x="98" y="217" type="line"/>
      <point x="507" y="217" type="line"/>
      <point x="519" y="385"/>
      <point x="425" y="512"/>
      <point x="272" y="512" type="curve" smooth="yes"/>
      <point x="132" y="512"/>
      <point x="32" y="403"/>
      <point x="32" y="250" type="curve" smooth="yes"/>
      <point x="32" y="97"/>
      <point x="135" y="-12"/>
    </contour>
  </outline>
</glyph>
<glyph name="f" format="2">
  <advance width="316"/>
  <unicode hex="0066"/>
  <note>
Ascendente corta?
</note>
  <outline>
    <contour>
      <point x="92" y="0" type="line"/>
      <point x="172" y="0" type="line"/>
      <point x="172" y="548" type="line" smooth="yes"/>
      <point x="172" y="611"/>
      <point x="240" y="624"/>
      <point x="288" y="592" type="curve"/>
      <point x="312" y="670" type="line"/>
      <point x="224" y="722"/>
      <point x="92" y="678"/>
      <point x="92" y="548" type="curve" smooth="yes"/>
    </contour>
    <contour>
      <point x="16" y="401" type="line"/>
      <point x="292" y="401" type="line"/>
      <point x="292" y="479" type="line"/>
      <point x="16" y="479" type="line"/>
    </contour>
  </outline>
</glyph>
<glyph name="g" format="2">
  <advance width="592"/>
  <unicode hex="0067"/>
  <anchor x="292" y="500" name="top"/>
  <outline>
    <contour>
      <point x="288" y="-212" type="curve" smooth="yes"/>
      <point x="428" y="-212"/>
      <point x="528" y="-112"/>
      <point x="528" y="28" type="curve" smooth="yes"/>
      <point x="528" y="500" type="line"/>
      <point x="458" y="500" type="line"/>
      <point x="450" y="400" type="line"/>
      <point x="476" y="262" type="line"/>
      <point x="448" y="100" type="line"/>
      <point x="448" y="20" type="line" smooth="yes"/>
      <point x="448" y="-67"/>
      <point x="383" y="-130"/>
      <point x="292" y="-130" type="curve" smooth="yes"/>
      <point x="213" y="-130"/>
      <point x="150" y="-81"/>
      <point x="140" y="-12" type="curve"/>
      <point x="52" y="-36" type="line"/>
      <point x="67" y="-139"/>
      <point x="166" y="-212"/>
    </contour>
    <contour>
      <point x="266" y="16" type="curve" smooth="yes"/>
      <point x="400" y="16"/>
      <point x="496" y="120"/>
      <point x="496" y="265" type="curve" smooth="yes"/>
      <point x="496" y="409"/>
      <point x="401" y="512"/>
      <point x="268" y="512" type="curve" smooth="yes"/>
      <point x="130" y="512"/>
      <point x="32" y="408"/>
      <point x="32" y="263" type="curve" smooth="yes"/>
      <point x="32" y="119"/>
      <point x="130" y="16"/>
    </contour>
    <contour>
      <point x="282" y="92" type="curve" smooth="yes"/>
      <point x="185" y="92"/>
      <point x="116" y="163"/>
      <point x="116" y="263" type="curve" smooth="yes"/>
      <point x="116" y="363"/>
      <point x="185" y="434"/>
      <point x="282" y="434" type="curve" smooth="yes"/>
      <point x="379" y="434"/>
      <point x="448" y="363"/>
      <point x="448" y="263" type="curve" smooth="yes"/>
      <point x="448" y="163"/>
      <point x="379" y="92"/>
    </contour>
  </outline>
</glyph>
<glyph name="k" format="2">
  <advance width="502"/>
  <unicode hex="006B"/>
  <anchor x="270" y="0" name="bottom"/>
  <anchor x="251" y="680" name="top"/>
  <outline>
    <contour>
      <point x="124" y="112" type="line"/>
      <point x="480" y="500" type="line"/>
      <point x="372" y="500" type="line"/>
      <point x="124" y="220" type="line"/>
    </contour>
    <contour>
      <point x="400" y="0" type="line"/>
      <point x="500" y="0" type="line"/>
      <point x="280" y="296" type="line"/>
      <point x="224" y="240" type="line"/>
    </contour>
    <component base="l"/>
  </outline>
</glyph>
<glyph name="l" format="2">
  <advance width="208"/>
  <unicode hex="006C"/>
  <anchor x="104" y="0" name="bottom"/>
  <anchor x="104" y="660" name="top"/>
  <anchor x="184" y="500" name="topright"/>
  <outline>
    <contour>
      <point x="64" y="0" type="line"/>
      <point x="144" y="0" type="line"/>
      <point x="144" y="680" type="line"/>
      <point x="64" y="680" type="line"/>
    </contour>
  </outline>
</glyph>
<glyph name="m" format="2">
  <advance width="856"/>
  <unicode hex="006D"/>
  <outline>
    <contour>
      <point x="64" y="0" type="line"/>
      <point x="144" y="0" type="line"/>
      <point x="144" y="276" type="line" smooth="yes"/>
      <point x="144" y="366"/>
      <point x="201" y="430"/>
      <point x="280" y="430" type="curve" smooth="yes"/>
      <point x="348" y="430"/>
      <point x="397" y="376"/>
      <point x="397" y="300" type="curve" smooth="yes"/>
      <point x="397" y="0" type="line"/>
      <point x="476" y="0" type="line"/>
      <point x="476" y="280" type="line" smooth="yes"/>
      <point x="476" y="367"/>
      <point x="531" y="430"/>
      <point x="608" y="430" type="curve" smooth="yes"/>
      <point x="676" y="430"/>
      <point x="724" y="376"/>
      <point x="724" y="300" type="curve" smooth="yes"/>
      <point x="724" y="0" type="line"/>
      <point x="804" y="0" type="line"/>
      <point x="804" y="304" type="line" smooth="yes"/>
      <point x="804" y="425"/>
      <point x="727" y="512"/>
      <point x="620" y="512" type="curve" smooth="yes"/>
      <point x="530" y="512"/>
      <point x="459" y="454"/>
      <point x="450" y="372" type="curve"/>
      <point x="470" y="372" type="line"/>
      <point x="452" y="454"/>
      <point x="379" y="512"/>
      <point x="294" y="512" type="curve" smooth="yes"/>
      <point x="213" y="512"/>
      <point x="147" y="460"/>
      <point x="136" y="388" type="curve"/>
      <point x="144" y="388" type="line"/>
      <point x="128" y="500" type="line"/>
      <point x="64" y="500" type="line"/>
    </contour>
  </outline>
</glyph>
<glyph name="n" format="2">
  <advance width="554"/>
  <unicode hex="006E"/>
  <anchor x="276" y="0" name="bottom"/>
  <anchor x="284" y="500" name="top"/>
  <outline>
    <contour>
      <point x="64" y="0" type="line"/>
      <point x="144" y="0" type="line"/>
      <point x="144" y="272" type="line" smooth="yes"/>
      <point x="144" y="365"/>
      <point x="208" y="432"/>
      <point x="292" y="432" type="curve" smooth="yes"/>
      <point x="368" y="432"/>
      <point x="422" y="376"/>
      <point x="422" y="296" type="curve" smooth="yes"/>
      <point x="422" y="0" type="line"/>
      <point x="502" y="0" type="line"/>
      <point x="502" y="304" type="line" smooth="yes"/>
      <point x="502" y="424"/>
      <point x="421" y="512"/>
      <point x="308" y="512" type="curve" smooth="yes"/>
      <point x="224" y="512"/>
      <point x="150" y="462"/>
      <point x="132" y="388" type="curve"/>
      <point x="144" y="388" type="line"/>
      <point x="132" y="500" type="line"/>
      <point x="64" y="500" type="line"/>
    </contour>
  </outline>
</glyph>
<glyph name="o" format="2">
  <advance width="564"/>
  <unicode hex="006F"/>
  <anchor x="282" y="500" name="top"/>
  <outline>
    <contour>
      <point x="282" y="-12" type="curve" smooth="yes"/>
      <point x="428" y="-12"/>
      <point x="532" y="97"/>
      <point x="532" y="250" type="curve" smooth="yes"/>
      <point x="532" y="403"/>
      <point x="428" y="512"/>
      <point x="282" y="512" type="curve" smooth="yes"/>
      <point x="136" y="512"/>
      <point x="32" y="403"/>
      <point x="32" y="250" type="curve" smooth="yes"/>
      <point x="32" y="97"/>
      <point x="136" y="-12"/>
    </contour>
    <contour>
      <point x="282" y="68" type="curve" smooth="yes"/>
      <point x="185" y="68"/>
      <point x="116" y="144"/>
      <point x="116" y="250" type="curve" smooth="yes"/>
      <point x="116" y="357"/>
      <point x="185" y="434"/>
      <point x="282" y="434" type="curve" smooth="yes"/>
      <point x="379" y="434"/>
      <point x="448" y="357"/>
      <point x="448" y="250" type="curve" smooth="yes"/>
      <point x="448" y="144"/>
      <point x="379" y="68"/>
    </contour>
  </outline>
</glyph>
<glyph name="p" format="2">
  <advance width="590"/>
  <unicode hex="0070"/>
  <outline>
    <contour>
      <point x="324" y="-12" type="curve" smooth="yes"/>
      <point x="460" y="-12"/>
      <point x="558" y="98"/>
      <point x="558" y="252" type="curve" smooth="yes"/>
      <point x="558" y="404"/>
      <point x="461" y="512"/>
      <point x="326" y="512" type="curve" smooth="yes"/>
      <point x="190" y="512"/>
      <point x="92" y="404"/>
      <point x="92" y="252" type="curve" smooth="yes"/>
      <point x="92" y="98"/>
      <point x="189" y="-12"/>
    </contour>
    <contour>
      <point x="64" y="-200" type="line"/>
      <point x="144" y="-200" type="line"/>
      <point x="144" y="100" type="line"/>
      <point x="114" y="250" type="line"/>
      <point x="144" y="400" type="line"/>
      <point x="132" y="500" type="line"/>
      <point x="64" y="500" type="line"/>
    </contour>
    <contour>
      <point x="308" y="68" type="curve" smooth="yes"/>
      <point x="211" y="68"/>
      <point x="142" y="144"/>
      <point x="142" y="250" type="curve" smooth="yes"/>
      <point x="142" y="357"/>
      <point x="211" y="434"/>
      <point x="308" y="434" type="curve" smooth="yes"/>
      <point x="405" y="434"/>
      <point x="474" y="357"/>
      <point x="474" y="250" type="curve" smooth="yes"/>
      <point x="474" y="144"/>
      <point x="405" y="68"/>
    </contour>
  </outline>
</glyph>
<glyph name="q" format="2">
  <advance width="596"/>
  <unicode hex="0071"/>
  <outline>
    <contour>
      <point x="266" y="-12" type="curve" smooth="yes"/>
      <point x="401" y="-12"/>
      <point x="498" y="97"/>
      <point x="498" y="249" type="curve" smooth="yes"/>
      <point x="498" y="402"/>
      <point x="400" y="512"/>
      <point x="264" y="512" type="curve" smooth="yes"/>
      <point x="129" y="512"/>
      <point x="32" y="404"/>
      <point x="32" y="252" type="curve" smooth="yes"/>
      <point x="32" y="98"/>
      <point x="130" y="-12"/>
    </contour>
    <contour>
      <point x="283" y="68" type="curve" smooth="yes"/>
      <point x="186" y="68"/>
      <point x="116" y="144"/>
      <point x="116" y="250" type="curve" smooth="yes"/>
      <point x="116" y="357"/>
      <point x="186" y="434"/>
      <point x="283" y="434" type="curve" smooth="yes"/>
      <point x="380" y="434"/>
      <point x="450" y="357"/>
      <point x="450" y="250" type="curve" smooth="yes"/>
      <point x="450" y="144"/>
      <point x="380" y="68"/>
    </contour>
    <contour>
      <point x="452" y="-200" type="line"/>
      <point x="532" y="-200" type="line"/>
      <point x="532" y="500" type="line"/>
      <point x="464" y="500" type="line"/>
      <point x="452" y="400" type="line"/>
      <point x="482" y="250" type="line"/>
      <point x="452" y="100" type="line"/>
    </contour>
  </outline>
</glyph>
<glyph name="r" format="2">
  <advance width="340"/>
  <unicode hex="0072"/>
  <note>
Rivedere orecchio
</note>
  <anchor x="104" y="0" name="bottom"/>
  <anchor x="192" y="500" name="top"/>
  <outline>
    <contour>
      <point x="64" y="0" type="line"/>
      <point x="144" y="0" type="line"/>
      <point x="144" y="304" type="line" smooth="yes"/>
      <point x="144" y="417"/>
      <point x="244" y="450"/>
      <point x="324" y="410" type="curve"/>
      <point x="328" y="504" type="line"/>
      <point x="228" y="532"/>
      <point x="140" y="480"/>
      <point x="132" y="380" type="curve"/>
      <point x="144" y="380" type="line"/>
      <point x="132" y="500" type="line"/>
      <point x="64" y="500" type="line"/>
    </contour>
  </outline>
</glyph>
<glyph name="s" format="2">
  <advance width="456"/>
  <unicode hex="0073"/>
  <anchor x="236" y="0" name="bottom"/>
  <anchor x="228" y="500" name="top"/>
  <outline>
    <contour>
      <point x="240" y="-12" type="curve" smooth="yes"/>
      <point x="352" y="-12"/>
      <point x="432" y="50"/>
      <point x="432" y="136" type="curve" smooth="yes"/>
      <point x="432" y="308"/>
      <point x="134" y="264"/>
      <point x="134" y="372" type="curve" smooth="yes"/>
      <point x="134" y="410"/>
      <point x="172" y="438"/>
      <point x="226" y="438" type="curve" smooth="yes"/>
      <point x="286" y="438"/>
      <point x="330" y="403"/>
      <point x="332" y="354" type="curve"/>
      <point x="416" y="376" type="line"/>
      <point x="405" y="455"/>
      <point x="328" y="512"/>
      <point x="224" y="512" type="curve" smooth="yes"/>
      <point x="120" y="512"/>
      <point x="48" y="454"/>
      <point x="48" y="372" type="curve" smooth="yes"/>
      <point x="48" y="204"/>
      <point x="344" y="248"/>
      <point x="344" y="136" type="curve" smooth="yes"/>
      <point x="344" y="94"/>
      <point x="300" y="64"/>
      <point x="244" y="64" type="curve" smooth="yes"/>
      <point x="172" y="64"/>
      <point x="116" y="112"/>
      <point x="112" y="172" type="curve"/>
      <point x="24" y="148" type="line"/>
      <point x="32" y="56"/>
      <point x="120" y="-12"/>
    </contour>
  </outline>
</glyph>
<glyph name="t" format="2">
  <advance width="308"/>
  <unicode hex="0074"/>
  <anchor x="188" y="0" name="bottom"/>
  <anchor x="224" y="500" name="topright"/>
  <outline>
    <contour>
      <point x="282" y="-4" type="curve"/>
      <point x="278" y="76" type="line"/>
      <point x="226" y="56"/>
      <point x="168" y="72"/>
      <point x="168" y="128" type="curve" smooth="yes"/>
      <point x="168" y="422" type="line"/>
      <point x="280" y="422" type="line"/>
      <point x="280" y="500" type="line"/>
      <point x="168" y="500" type="line"/>
      <point x="168" y="628" type="line"/>
      <point x="92" y="628" type="line"/>
      <point x="92" y="562" type="line" smooth="yes"/>
      <point x="92" y="524"/>
      <point x="71" y="500"/>
      <point x="38" y="500" type="curve" smooth="yes"/>
      <point x="8" y="500" type="line"/>
      <point x="8" y="422" type="line"/>
      <point x="88" y="422" type="line"/>
      <point x="88" y="108" type="line" smooth="yes"/>
      <point x="88" y="-4"/>
      <point x="198" y="-28"/>
    </contour>
  </outline>
</glyph>
<glyph name="u" format="2">
  <advance width="548"/>
  <unicode hex="0075"/>
  <anchor x="472" y="0" name="ogonek"/>
  <anchor x="272" y="500" name="top"/>
  <outline>
    <contour>
      <point x="246" y="-12" type="curve" smooth="yes"/>
      <point x="334" y="-12"/>
      <point x="400" y="36"/>
      <point x="412" y="108" type="curve"/>
      <point x="400" y="108" type="line"/>
      <point x="416" y="0" type="line"/>
      <point x="486" y="0" type="line"/>
      <point x="484" y="100" type="line"/>
      <point x="484" y="500" type="line"/>
      <point x="404" y="500" type="line"/>
      <point x="404" y="212" type="line" smooth="yes"/>
      <point x="404" y="129"/>
      <point x="346" y="70"/>
      <point x="264" y="70" type="curve" smooth="yes"/>
      <point x="187" y="70"/>
      <point x="132" y="123"/>
      <point x="132" y="196" type="curve" smooth="yes"/>
      <point x="132" y="500" type="line"/>
      <point x="52" y="500" type="line"/>
      <point x="52" y="184" type="line" smooth="yes"/>
      <point x="52" y="68"/>
      <point x="132" y="-12"/>
    </contour>
  </outline>
</glyph>
<glyph name="v" format="2">
  <advance width="478"/>
  <unicode hex="0076"/>
  <outline>
    <contour>
      <point x="194" y="0" type="line"/>
      <point x="288" y="0" type="line"/>
      <point x="476" y="500" type="line"/>
      <point x="386" y="500" type="line"/>
      <point x="241" y="92" type="line"/>
      <point x="96" y="500" type="line"/>
      <point x="2" y="500" type="line"/>
    </contour>
  </outline>
</glyph>
<glyph name="w" format="2">
  <advance width="628"/>
  <unicode hex="0077"/>
  <outline>
    <contour>
      <point x="104" y="0" type="line"/>
      <point x="204" y="0" type="line"/>
      <point x="314" y="392" type="line"/>
      <point x="420" y="0" type="line"/>
      <point x="516" y="0" type="line"/>
      <point x="604" y="500" type="line"/>
      <point x="524" y="500" type="line"/>
      <point x="464" y="104" type="line"/>
      <point x="360" y="500" type="line"/>
      <point x="272" y="500" type="line"/>
      <point x="162" y="104" type="line"/>
      <point x="108" y="500" type="line"/>
      <point x="24" y="500" type="line"/>
    </contour>
  </outline>
</glyph>
<glyph name="x" format="2">
  <advance width="484"/>
  <unicode hex="0078"/>
  <outline>
    <contour>
      <point x="2" y="0" type="line"/>
      <point x="106" y="0" type="line"/>
      <point x="242" y="190" type="line"/>
      <point x="384" y="0" type="line"/>
      <point x="482" y="0" type="line"/>
      <point x="290" y="256" type="line"/>
      <point x="466" y="500" type="line"/>
      <point x="366" y="500" type="line"/>
      <point x="242" y="324" type="line"/>
      <point x="110" y="500" type="line"/>
      <point x="10" y="500" type="line"/>
      <point x="192" y="256" type="line"/>
    </contour>
  </outline>
</glyph>
<glyph name="y" format="2">
  <advance width="472"/>
  <unicode hex="0079"/>
  <anchor x="240" y="500" name="top"/>
  <outline>
    <contour>
      <point x="96" y="-212" type="line"/>
      <point x="164" y="-204"/>
      <point x="219" y="-152"/>
      <point x="250" y="-72" type="curve" smooth="yes"/>
      <point x="470" y="500" type="line"/>
      <point x="378" y="500" type="line"/>
      <point x="242" y="116" type="line"/>
      <point x="96" y="500" type="line"/>
      <point x="2" y="500" type="line"/>
      <point x="198" y="16" type="line"/>
      <point x="170" y="-56" type="line" smooth="yes"/>
      <point x="152" y="-102"/>
      <point x="118" y="-124"/>
      <point x="74" y="-128" type="curve"/>
    </contour>
  </outline>
</glyph>
<glyph name="z" format="2">
  <advance width="472"/>
  <unicode hex="007A"/>
  <anchor x="240" y="500" name="top"/>
  <outline>
    <contour>
      <point x="32" y="0" type="line"/>
      <point x="440" y="0" type="line"/>
      <point x="440" y="80" type="line"/>
      <point x="134" y="80" type="line"/>
      <point x="436" y="422" type="line"/>
      <point x="436" y="500" type="line"/>
      <point x="40" y="500" type="line"/>
      <point x="40" y="424" type="line"/>
      <point x="338" y="424" type="line"/>
      <point x="32" y="82" type="line"/>
    </contour>
  </outline>
</glyph>
<glyph name="asciitilde" format="2">
  <advance width="600"/>
  <unicode hex="007E"/>
  <outline>
    <contour>
      <point x="396" y="240" type="curve" smooth="yes"/>
      <point x="469" y="240"/>
      <point x="520" y="295"/>
      <point x="520" y="373" type="curve" smooth="yes"/>
      <point x="520" y="393" type="line"/>
      <point x="444" y="393" type="line"/>
      <point x="444" y="381" type="line" smooth="yes"/>
      <point x="444" y="346"/>
      <point x="421" y="321"/>
      <point x="388" y="321" type="curve" smooth="yes"/>
      <point x="328" y="321"/>
      <point x="292" y="400"/>
      <point x="204" y="400" type="curve" smooth="yes"/>
      <point x="131" y="400"/>
      <point x="80" y="345"/>
      <point x="80" y="267" type="curve" smooth="yes"/>
      <point x="80" y="247" type="line"/>
      <point x="156" y="247" type="line"/>
      <point x="156" y="259" type="line" smooth="yes"/>
      <point x="156" y="294"/>
      <point x="179" y="319"/>
      <point x="212" y="319" type="curve" smooth="yes"/>
      <point x="272" y="319"/>
      <point x="308" y="240"/>
    </contour>
  </outline>
</glyph>
<glyph name="exclamdown" format="2">
  <advance width="200"/>
  <unicode hex="00A1"/>
  <outline>
    <contour>
      <point x="58" y="-200" type="line"/>
      <point x="142" y="-200" type="line"/>
      <point x="134" y="308" type="line"/>
      <point x="66" y="308" type="line"/>
    </contour>
    <component base="period" xOffset="4" yOffset="384"/>
  </outline>
</glyph>
<glyph name="cent" format="2">
  <advance width="532"/>
  <unicode hex="00A2"/>
  <outline>
    <contour>
      <point x="130" y="-124" type="line"/>
      <point x="202" y="-142" type="line"/>
      <point x="408" y="636" type="line"/>
      <point x="336" y="654" type="line"/>
    </contour>
    <component base="c"/>
  </outline>
</glyph>
<glyph name="sterling" format="2">
  <advance width="516"/>
  <unicode hex="00A3"/>
  <outline>
    <contour>
      <point x="36" y="0" type="line"/>
      <point x="488" y="0" type="line"/>
      <point x="488" y="82" type="line"/>
      <point x="152" y="82" type="line"/>
      <point x="208" y="118"/>
      <point x="240" y="176"/>
      <point x="240" y="236" type="curve" smooth="yes"/>
      <point x="240" y="340"/>
      <point x="140" y="372"/>
      <point x="140" y="468" type="curve" smooth="yes"/>
      <point x="140" y="535"/>
      <point x="190" y="582"/>
      <point x="260" y="582" type="curve" smooth="yes"/>
      <point x="333" y="582"/>
      <point x="384" y="525"/>
      <point x="384" y="444" type="curve"/>
      <point x="472" y="468" type="line"/>
      <point x="464" y="582"/>
      <point x="375" y="662"/>
      <point x="256" y="662" type="curve" smooth="yes"/>
      <point x="138" y="662"/>
      <point x="54" y="583"/>
      <point x="54" y="472" type="curve" smooth="yes"/>
      <point x="54" y="348"/>
      <point x="156" y="320"/>
      <point x="156" y="228" type="curve" smooth="yes"/>
      <point x="156" y="168"/>
      <point x="112" y="110"/>
      <point x="36" y="90" type="curve"/>
    </contour>
    <contour>
      <point x="28" y="252" type="line"/>
      <point x="392" y="252" type="line"/>
      <point x="428" y="332" type="line"/>
      <point x="28" y="332" type="line"/>
    </contour>
  </outline>
</glyph>
<glyph name="currency" format="2">
  <advance width="600"/>
  <unicode hex="00A4"/>
  <outline>
    <contour>
      <point x="160" y="116" type="line"/>
      <point x="232" y="192" type="line"/>
      <point x="176" y="248" type="line"/>
      <point x="100" y="174" type="line"/>
    </contour>
    <contour>
      <point x="440" y="116" type="line"/>
      <point x="500" y="174" type="line"/>
      <point x="424" y="248" type="line"/>
      <point x="368" y="192" type="line"/>
    </contour>
    <contour>
      <point x="424" y="388" type="line"/>
      <point x="500" y="462" type="line"/>
      <point x="440" y="520" type="line"/>
      <point x="368" y="444" type="line"/>
    </contour>
    <contour>
      <point x="176" y="388" type="line"/>
      <point x="232" y="444" type="line"/>
      <point x="160" y="520" type="line"/>
      <point x="100" y="462" type="line"/>
    </contour>
    <component base="degree" xOffset="120" yOffset="-175"/>
  </outline>
</glyph>
<glyph name="yen" format="2">
  <advance width="572"/>
  <unicode hex="00A5"/>
  <outline>
    <contour>
      <point x="74" y="179" type="line"/>
      <point x="502" y="179" type="line"/>
      <point x="502" y="255" type="line"/>
      <point x="74" y="255" type="line"/>
    </contour>
    <contour>
      <point x="72" y="63" type="line"/>
      <point x="504" y="63" type="line"/>
      <point x="504" y="139" type="line"/>
      <point x="72" y="139" type="line"/>
    </contour>
    <component base="Y" xOffset="6"/>
  </outline>
</glyph>
<glyph name="brokenbar" format="2">
  <advance width="210"/>
  <unicode hex="00A6"/>
  <outline>
    <contour>
      <point x="64" y="-200" type="line"/>
      <point x="146" y="-200" type="line"/>
      <point x="146" y="160" type="line"/>
      <point x="64" y="160" type="line"/>
    </contour>
    <contour>
      <point x="64" y="336" type="line"/>
      <point x="146" y="336" type="line"/>
      <point x="146" y="680" type="line"/>
      <point x="64" y="680" type="line"/>
    </contour>
  </outline>
</glyph>
<glyph name="section" format="2">
  <advance width="524"/>
  <unicode hex="00A7"/>
  <outline>
    <contour>
      <point x="272" y="-212" type="curve" smooth="yes"/>
      <point x="400" y="-212"/>
      <point x="488" y="-141"/>
      <point x="488" y="-40" type="curve" smooth="yes"/>
      <point x="488" y="161"/>
      <point x="140" y="120"/>
      <point x="140" y="252" type="curve" smooth="yes"/>
      <point x="140" y="305"/>
      <point x="192" y="344"/>
      <point x="264" y="344" type="curve"/>
      <point x="164" y="384" type="line"/>
      <point x="104" y="360"/>
      <point x="62" y="318"/>
      <point x="62" y="252" type="curve" smooth="yes"/>
      <point x="62" y="61"/>
      <point x="406" y="101"/>
      <point x="406" y="-40" type="curve" smooth="yes"/>
      <point x="406" y="-97"/>
      <point x="348" y="-138"/>
      <point x="276" y="-138" type="curve" smooth="yes"/>
      <point x="186" y="-138"/>
      <point x="124" y="-80"/>
      <point x="120" y="4" type="curve"/>
      <point x="36" y="-16" type="line"/>
      <point x="43" y="-132"/>
      <point x="138" y="-212"/>
    </contour>
    <contour>
      <point x="384" y="96" type="line"/>
      <point x="448" y="124"/>
      <point x="484" y="165"/>
      <point x="484" y="228" type="curve" smooth="yes"/>
      <point x="484" y="425"/>
      <point x="144" y="388"/>
      <point x="144" y="512" type="curve" smooth="yes"/>
      <point x="144" y="560"/>
      <point x="196" y="590"/>
      <point x="256" y="590" type="curve" smooth="yes"/>
      <point x="328" y="590"/>
      <point x="373" y="545"/>
      <point x="380" y="484" type="curve"/>
      <point x="460" y="508" type="line"/>
      <point x="449" y="601"/>
      <point x="367" y="662"/>
      <point x="256" y="662" type="curve" smooth="yes"/>
      <point x="148" y="662"/>
      <point x="64" y="602"/>
      <point x="64" y="508" type="curve" smooth="yes"/>
      <point x="64" y="320"/>
      <point x="406" y="368"/>
      <point x="406" y="230" type="curve" smooth="yes"/>
      <point x="406" y="175"/>
      <point x="355" y="136"/>
      <point x="284" y="136" type="curve"/>
    </contour>
  </outline>
</glyph>
<glyph name="ordfeminine" format="2">
  <advance width="316"/>
  <unicode hex="00AA"/>
  <outline>
    <contour>
      <point x="128" y="334" type="curve" smooth="yes"/>
      <point x="197" y="334"/>
      <point x="242" y="384"/>
      <point x="242" y="460" type="curve"/>
      <point x="222" y="474" type="line"/>
      <point x="222" y="426"/>
      <point x="185" y="392"/>
      <point x="140" y="392" type="curve" smooth="yes"/>
      <point x="111" y="392"/>
      <point x="92" y="407"/>
      <point x="92" y="430" type="curve" smooth="yes"/>
      <point x="92" y="448"/>
      <point x="104" y="462"/>
      <point x="126" y="466" type="curve" smooth="yes"/>
      <point x="222" y="483" type="line"/>
      <point x="222" y="404" type="line"/>
      <point x="231" y="341" type="line"/>
      <point x="284" y="341" type="line"/>
      <point x="284" y="544" type="line" smooth="yes"/>
      <point x="284" y="608"/>
      <point x="234" y="654"/>
      <point x="164" y="654" type="curve" smooth="yes"/>
      <point x="95" y="654"/>
      <point x="42" y="609"/>
      <point x="36" y="545" type="curve"/>
      <point x="100" y="537" type="line"/>
      <point x="101" y="574"/>
      <point x="128" y="600"/>
      <point x="164" y="600" type="curve" smooth="yes"/>
      <point x="198" y="600"/>
      <point x="222" y="577"/>
      <point x="222" y="544" type="curve" smooth="yes"/>
      <point x="222" y="535"/>
      <point x="214" y="528"/>
      <point x="202" y="526" type="curve" smooth="yes"/>
      <point x="100" y="508" type="line" smooth="yes"/>
      <point x="56" y="500"/>
      <point x="28" y="466"/>
      <point x="28" y="424" type="curve" smooth="yes"/>
      <point x="28" y="369"/>
      <point x="67" y="334"/>
    </contour>
  </outline>
</glyph>
<glyph name="logicalnot" format="2">
  <advance width="600"/>
  <unicode hex="00AC"/>
  <outline>
    <contour>
      <point x="80" y="279" type="line"/>
      <point x="500" y="279" type="line"/>
      <point x="500" y="361" type="line"/>
      <point x="80" y="361" type="line"/>
    </contour>
    <contour>
      <point x="416" y="123" type="line"/>
      <point x="500" y="123" type="line"/>
      <point x="500" y="299" type="line"/>
      <point x="416" y="299" type="line"/>
    </contour>
  </outline>
</glyph>
<glyph name="registered" format="2">
  <advance width="776"/>
  <unicode hex="00AE"/>
  <outline>
    <contour>
      <point x="388" y="-56" type="curve" smooth="yes"/>
      <point x="592" y="-56"/>
      <point x="740" y="96"/>
      <point x="740" y="305" type="curve" smooth="yes"/>
      <point x="740" y="514"/>
      <point x="592" y="666"/>
      <point x="388" y="666" type="curve" smooth="yes"/>
      <point x="184" y="666"/>
      <point x="36" y="514"/>
      <point x="36" y="305" type="curve" smooth="yes"/>
      <point x="36" y="96"/>
      <point x="184" y="-56"/>
    </contour>
    <contour>
      <point x="248" y="120" type="line"/>
      <point x="327" y="120" type="line"/>
      <point x="327" y="492" type="line"/>
      <point x="248" y="492" type="line"/>
    </contour>
    <contour>
      <point x="458" y="120" type="line"/>
      <point x="544" y="120" type="line"/>
      <point x="470" y="276" type="line"/>
      <point x="392" y="276" type="line"/>
    </contour>
    <contour>
      <point x="388" y="24" type="curve" smooth="yes"/>
      <point x="233" y="24"/>
      <point x="120" y="142"/>
      <point x="120" y="306" type="curve" smooth="yes"/>
      <point x="120" y="470"/>
      <point x="233" y="588"/>
      <point x="388" y="588" type="curve" smooth="yes"/>
      <point x="543" y="588"/>
      <point x="656" y="470"/>
      <point x="656" y="306" type="curve" smooth="yes"/>
      <point x="656" y="142"/>
      <point x="543" y="24"/>
    </contour>
    <contour>
      <point x="306" y="255" type="line"/>
      <point x="412" y="255" type="line" smooth="yes"/>
      <point x="485" y="255"/>
      <point x="536" y="304"/>
      <point x="536" y="373" type="curve" smooth="yes"/>
      <point x="536" y="443"/>
      <point x="483" y="492"/>
      <point x="408" y="492" type="curve" smooth="yes"/>
      <point x="306" y="492" type="line"/>
      <point x="306" y="416" type="line"/>
      <point x="410" y="416" type="line" smooth="yes"/>
      <point x="437" y="416"/>
      <point x="456" y="398"/>
      <point x="456" y="372" type="curve" smooth="yes"/>
      <point x="456" y="346"/>
      <point x="438" y="328"/>
      <point x="412" y="328" type="curve" smooth="yes"/>
      <point x="306" y="328" type="line"/>
    </contour>
  </outline>
</glyph>
<glyph name="degree" format="2">
  <advance width="360"/>
  <unicode hex="00B0"/>
  <outline>
    <contour>
      <point x="180" y="334" type="curve" smooth="yes"/>
      <point x="271" y="334"/>
      <point x="336" y="401"/>
      <point x="336" y="494" type="curve" smooth="yes"/>
      <point x="336" y="587"/>
      <point x="271" y="654"/>
      <point x="180" y="654" type="curve" smooth="yes"/>
      <point x="89" y="654"/>
      <point x="24" y="587"/>
      <point x="24" y="494" type="curve" smooth="yes"/>
      <point x="24" y="401"/>
      <point x="89" y="334"/>
    </contour>
    <contour>
      <point x="180" y="402" type="curve" smooth="yes"/>
      <point x="130" y="402"/>
      <point x="94" y="441"/>
      <point x="94" y="495" type="curve" smooth="yes"/>
      <point x="94" y="549"/>
      <point x="130" y="588"/>
      <point x="180" y="588" type="curve" smooth="yes"/>
      <point x="230" y="588"/>
      <point x="266" y="549"/>
      <point x="266" y="495" type="curve" smooth="yes"/>
      <point x="266" y="441"/>
      <point x="230" y="402"/>
    </contour>
  </outline>
</glyph>
<glyph name="plusminus" format="2">
  <advance width="600"/>
  <unicode hex="00B1"/>
  <outline>
    <contour>
      <point x="92" y="104" type="line"/>
      <point x="508" y="104" type="line"/>
      <point x="508" y="184" type="line"/>
      <point x="92" y="184" type="line"/>
    </contour>
    <contour>
      <point x="94" y="332" type="line"/>
      <point x="506" y="332" type="line"/>
      <point x="506" y="410" type="line"/>
      <point x="94" y="410" type="line"/>
    </contour>
    <contour>
      <point x="258" y="224" type="line"/>
      <point x="342" y="224" type="line"/>
      <point x="342" y="536" type="line"/>
      <point x="258" y="536" type="line"/>
    </contour>
  </outline>
</glyph>
<glyph name="twosuperior" format="2">
  <advance width="250"/>
  <unicode hex="00B2"/>
  <outline>
    <contour>
      <point x="20" y="338" type="line"/>
      <point x="228" y="338" type="line"/>
      <point x="228" y="397" type="line"/>
      <point x="88" y="397" type="line"/>
      <point x="104" y="461"/>
      <point x="230" y="460"/>
      <point x="230" y="558" type="curve" smooth="yes"/>
      <point x="230" y="615"/>
      <point x="188" y="656"/>
      <point x="128" y="656" type="curve" smooth="yes"/>
      <point x="56" y="656"/>
      <point x="13" y="608"/>
      <point x="21" y="532" type="curve"/>
      <point x="80" y="535" type="line"/>
      <point x="76" y="575"/>
      <point x="94" y="602"/>
      <point x="126" y="602" type="curve" smooth="yes"/>
      <point x="152" y="602"/>
      <point x="170" y="582"/>
      <point x="170" y="556" type="curve" smooth="yes"/>
      <point x="170" y="480"/>
      <point x="20" y="488"/>
      <point x="20" y="352" type="curve" smooth="yes"/>
    </contour>
  </outline>
</glyph>
<glyph name="threesuperior" format="2">
  <advance width="268"/>
  <unicode hex="00B3"/>
  <outline>
    <contour>
      <point x="134" y="332" type="curve" smooth="yes"/>
      <point x="202" y="332"/>
      <point x="248" y="376"/>
      <point x="248" y="436" type="curve" smooth="yes"/>
      <point x="248" y="490"/>
      <point x="212" y="532"/>
      <point x="164" y="540" type="curve"/>
      <point x="236" y="596" type="line"/>
      <point x="236" y="650" type="line"/>
      <point x="36" y="650" type="line"/>
      <point x="36" y="594" type="line"/>
      <point x="156" y="594" type="line"/>
      <point x="84" y="532" type="line"/>
      <point x="116" y="494" type="line"/>
      <point x="146" y="506"/>
      <point x="186" y="488"/>
      <point x="186" y="444" type="curve" smooth="yes"/>
      <point x="186" y="412"/>
      <point x="166" y="390"/>
      <point x="136" y="390" type="curve" smooth="yes"/>
      <point x="102" y="390"/>
      <point x="78" y="416"/>
      <point x="80" y="452" type="curve"/>
      <point x="20" y="440" type="line"/>
      <point x="20" y="377"/>
      <point x="66" y="332"/>
    </contour>
  </outline>
</glyph>
<glyph name="micro" format="2">
  <advance width="560"/>
  <unicode hex="00B5"/>
  <outline>
    <contour>
      <point x="64" y="-200" type="line"/>
      <point x="144" y="-200" type="line"/>
      <point x="144" y="500" type="line"/>
      <point x="64" y="500" type="line"/>
    </contour>
    <contour>
      <point x="276" y="-12" type="curve" smooth="yes"/>
      <point x="355" y="-12"/>
      <point x="418" y="36"/>
      <point x="428" y="104" type="curve"/>
      <point x="416" y="224" type="line"/>
      <point x="416" y="134"/>
      <point x="357" y="70"/>
      <point x="274" y="70" type="curve" smooth="yes"/>
      <point x="198" y="70"/>
      <point x="144" y="125"/>
      <point x="144" y="202" type="curve"/>
      <point x="100" y="180" type="line"/>
      <point x="100" y="68"/>
      <point x="173" y="-12"/>
    </contour>
    <contour>
      <point x="430" y="0" type="line"/>
      <point x="498" y="0" type="line"/>
      <point x="496" y="100" type="line"/>
      <point x="496" y="500" type="line"/>
      <point x="416" y="500" type="line"/>
      <point x="416" y="100" type="line"/>
      <point x="420" y="100" type="line"/>
    </contour>
  </outline>
</glyph>
<glyph name="paragraph" format="2">
  <advance width="544"/>
  <unicode hex="00B6"/>
  <outline>
    <contour>
      <point x="252" y="-200" type="line"/>
      <point x="332" y="-200" type="line"/>
      <point x="332" y="650" type="line"/>
      <point x="220" y="650" type="line" smooth="yes"/>
      <point x="104" y="650"/>
      <point x="20" y="566"/>
      <point x="20" y="450" type="curve" smooth="yes"/>
      <point x="20" y="328"/>
      <point x="104" y="240"/>
      <point x="220" y="240" type="curve" smooth="yes"/>
      <point x="272" y="240" type="line"/>
      <point x="252" y="260" type="line"/>
    </contour>
    <contour>
      <point x="400" y="-200" type="line"/>
      <point x="480" y="-200" type="line"/>
      <point x="480" y="650" type="line"/>
      <point x="400" y="650" type="line"/>
    </contour>
  </outline>
</glyph>
<glyph name="onesuperior" format="2">
  <advance width="172"/>
  <unicode hex="00B9"/>
  <outline>
    <contour>
      <point x="70" y="338" type="line"/>
      <point x="132" y="338" type="line"/>
      <point x="132" y="650" type="line"/>
      <point x="74" y="650" type="line"/>
      <point x="74" y="630" type="line" smooth="yes"/>
      <point x="74" y="602"/>
      <point x="54" y="582"/>
      <point x="28" y="582" type="curve" smooth="yes"/>
      <point x="8" y="582" type="line"/>
      <point x="8" y="526" type="line"/>
      <point x="70" y="526" type="line"/>
    </contour>
  </outline>
</glyph>
<glyph name="AE" format="2">
  <advance width="888"/>
  <unicode hex="00C6"/>
  <outline>
    <contour>
      <point x="2" y="0" type="line"/>
      <point x="98" y="0" type="line"/>
      <point x="366" y="650" type="line"/>
      <point x="282" y="650" type="line"/>
    </contour>
    <contour>
      <point x="132" y="176" type="line"/>
      <point x="432" y="176" type="line"/>
      <point x="432" y="256" type="line"/>
      <point x="132" y="256" type="line"/>
    </contour>
    <contour>
      <point x="476" y="0" type="line"/>
      <point x="856" y="0" type="line"/>
      <point x="856" y="82" type="line"/>
      <point x="476" y="82" type="line"/>
    </contour>
    <contour>
      <point x="412" y="0" type="line"/>
      <point x="496" y="0" type="line"/>
      <point x="496" y="650" type="line"/>
      <point x="412" y="650" type="line"/>
    </contour>
    <contour>
      <point x="476" y="293" type="line"/>
      <point x="804" y="293" type="line"/>
      <point x="804" y="371" type="line"/>
      <point x="476" y="371" type="line"/>
    </contour>
    <contour>
      <point x="302" y="570" type="line"/>
      <point x="844" y="570" type="line"/>
      <point x="844" y="650" type="line"/>
      <point x="302" y="650" type="line"/>
    </contour>
  </outline>
</glyph>
<glyph name="Idieresis" format="2">
  <advance width="220"/>
  <unicode hex="00CF"/>
  <outline>
    <contour>
      <point x="32" y="694" type="curve" smooth="yes"/>
      <point x="67" y="694"/>
      <point x="92" y="720"/>
      <point x="92" y="756" type="curve" smooth="yes"/>
      <point x="92" y="792"/>
      <point x="67" y="818"/>
      <point x="32" y="818" type="curve" smooth="yes"/>
      <point x="-3" y="818"/>
      <point x="-28" y="792"/>
      <point x="-28" y="756" type="curve" smooth="yes"/>
      <point x="-28" y="720"/>
      <point x="-3" y="694"/>
    </contour>
    <contour>
      <point x="188" y="694" type="curve" smooth="yes"/>
      <point x="223" y="694"/>
      <point x="248" y="720"/>
      <point x="248" y="756" type="curve" smooth="yes"/>
      <point x="248" y="792"/>
      <point x="223" y="818"/>
      <point x="188" y="818" type="curve" smooth="yes"/>
      <point x="153" y="818"/>
      <point x="128" y="792"/>
      <point x="128" y="756" type="curve" smooth="yes"/>
      <point x="128" y="720"/>
      <point x="153" y="694"/>
    </contour>
    <component base="I"/>
  </outline>
</glyph>
<glyph name="Eth" format="2">
  <advance width="664"/>
  <unicode hex="00D0"/>
  <outline>
    <contour>
      <point x="8" y="292" type="line"/>
      <point x="392" y="292" type="line"/>
      <point x="392" y="364" type="line"/>
      <point x="8" y="364" type="line"/>
    </contour>
    <component base="D" xOffset="4"/>
  </outline>
</glyph>
<glyph name="multiply" format="2">
  <advance width="600"/>
  <unicode hex="00D7"/>
  <outline>
    <contour>
      <point x="159" y="115" type="line"/>
      <point x="300" y="261" type="line"/>
      <point x="441" y="115" type="line"/>
      <point x="500" y="174" type="line"/>
      <point x="356" y="319" type="line"/>
      <point x="500" y="462" type="line"/>
      <point x="441" y="521" type="line"/>
      <point x="300" y="377" type="line"/>
      <point x="159" y="521" type="line"/>
      <point x="100" y="462" type="line"/>
      <point x="244" y="319" type="line"/>
      <point x="100" y="174" type="line"/>
    </contour>
  </outline>
</glyph>
<glyph name="Oslash" format="2">
  <advance width="704"/>
  <unicode hex="00D8"/>
  <outline>
    <contour>
      <point x="120" y="-15" type="line"/>
      <point x="660" y="629" type="line"/>
      <point x="600" y="679" type="line"/>
      <point x="60" y="35" type="line"/>
    </contour>
    <component base="O"/>
  </outline>
</glyph>
<glyph name="Thorn" format="2">
  <advance width="568"/>
  <unicode hex="00DE"/>
  <outline>
    <contour>
      <point x="128" y="127" type="line"/>
      <point x="338" y="127" type="line" smooth="yes"/>
      <point x="455" y="127"/>
      <point x="540" y="214"/>
      <point x="540" y="333" type="curve" smooth="yes"/>
      <point x="540" y="451"/>
      <point x="455" y="537"/>
      <point x="338" y="537" type="curve" smooth="yes"/>
      <point x="128" y="537" type="line"/>
      <point x="128" y="457" type="line"/>
      <point x="334" y="457" type="line" smooth="yes"/>
      <point x="402" y="457"/>
      <point x="452" y="405"/>
      <point x="452" y="332" type="curve" smooth="yes"/>
      <point x="452" y="259"/>
      <point x="401" y="207"/>
      <point x="330" y="207" type="curve" smooth="yes"/>
      <point x="128" y="207" type="line"/>
    </contour>
    <contour>
      <point x="64" y="0" type="line"/>
      <point x="148" y="0" type="line"/>
      <point x="148" y="650" type="line"/>
      <point x="64" y="650" type="line"/>
    </contour>
  </outline>
</glyph>
<glyph name="germandbls" format="2">
  <advance width="532"/>
  <unicode hex="00DF"/>
  <outline>
    <contour>
      <point x="64" y="-200" type="line"/>
      <point x="144" y="-200" type="line"/>
      <point x="144" y="498" type="line" smooth="yes"/>
      <point x="144" y="566"/>
      <point x="193" y="614"/>
      <point x="264" y="614" type="curve" smooth="yes"/>
      <point x="333" y="614"/>
      <point x="384" y="568"/>
      <point x="384" y="506" type="curve" smooth="yes"/>
      <point x="384" y="444"/>
      <point x="334" y="398"/>
      <point x="268" y="398" type="curve" smooth="yes"/>
      <point x="230" y="398" type="line"/>
      <point x="230" y="322" type="line"/>
      <point x="268" y="322" type="line" smooth="yes"/>
      <point x="352" y="322"/>
      <point x="406" y="272"/>
      <point x="406" y="196" type="curve" smooth="yes"/>
      <point x="406" y="88"/>
      <point x="300" y="60"/>
      <point x="208" y="76" type="curve"/>
      <point x="204" y="-6" type="line"/>
      <point x="344" y="-38"/>
      <point x="492" y="42"/>
      <point x="492" y="188" type="curve" smooth="yes"/>
      <point x="492" y="270"/>
      <point x="444" y="336"/>
      <point x="366" y="362" type="curve"/>
      <point x="428" y="391"/>
      <point x="464" y="446"/>
      <point x="464" y="512" type="curve" smooth="yes"/>
      <point x="464" y="615"/>
      <point x="378" y="692"/>
      <point x="262" y="692" type="curve" smooth="yes"/>
      <point x="146" y="692"/>
      <point x="64" y="616"/>
      <point x="64" y="508" type="curve" smooth="yes"/>
    </contour>
  </outline>
</glyph>
<glyph name="ae" format="2">
  <advance width="832"/>
  <unicode hex="00E6"/>
  <outline>
    <contour>
      <point x="582" y="-12" type="curve" smooth="yes"/>
      <point x="685" y="-12"/>
      <point x="774" y="51"/>
      <point x="794" y="140" type="curve"/>
      <point x="704" y="168" type="line"/>
      <point x="691" y="107"/>
      <point x="643" y="68"/>
      <point x="580" y="68" type="curve" smooth="yes"/>
      <point x="493" y="68"/>
      <point x="432" y="140"/>
      <point x="432" y="250" type="curve" smooth="yes"/>
      <point x="432" y="361"/>
      <point x="488" y="434"/>
      <point x="574" y="434" type="curve" smooth="yes"/>
      <point x="646" y="434"/>
      <point x="700" y="379"/>
      <point x="712" y="295" type="curve"/>
      <point x="412" y="295" type="line"/>
      <point x="412" y="217" type="line"/>
      <point x="799" y="217" type="line"/>
      <point x="811" y="381"/>
      <point x="724" y="512"/>
      <point x="576" y="512" type="curve" smooth="yes"/>
      <point x="491" y="512"/>
      <point x="423" y="468"/>
      <point x="384" y="400" type="curve"/>
      <point x="384" y="104" type="line"/>
      <point x="420" y="36"/>
      <point x="498" y="-12"/>
    </contour>
    <contour>
      <point x="207" y="-12" type="curve" smooth="yes"/>
      <point x="311" y="-12"/>
      <point x="392" y="54"/>
      <point x="408" y="144" type="curve"/>
      <point x="352" y="184" type="line"/>
      <point x="352" y="116"/>
      <point x="293" y="66"/>
      <point x="212" y="66" type="curve" smooth="yes"/>
      <point x="156" y="66"/>
      <point x="116" y="98"/>
      <point x="116" y="142" type="curve" smooth="yes"/>
      <point x="116" y="176"/>
      <point x="145" y="204"/>
      <point x="184" y="208" type="curve" smooth="yes"/>
      <point x="352" y="224" type="line"/>
      <point x="352" y="316" type="line"/>
      <point x="352" y="302"/>
      <point x="347" y="294"/>
      <point x="328" y="292" type="curve" smooth="yes"/>
      <point x="164" y="276" type="line" smooth="yes"/>
      <point x="87" y="268"/>
      <point x="32" y="212"/>
      <point x="32" y="140" type="curve" smooth="yes"/>
      <point x="32" y="52"/>
      <point x="105" y="-12"/>
    </contour>
    <contour>
      <point x="352" y="100" type="line"/>
      <point x="432" y="100" type="line"/>
      <point x="432" y="332" type="line" smooth="yes"/>
      <point x="432" y="441"/>
      <point x="358" y="512"/>
      <point x="244" y="512" type="curve" smooth="yes"/>
      <point x="138" y="512"/>
      <point x="54" y="437"/>
      <point x="44" y="334" type="curve"/>
      <point x="132" y="320" type="line"/>
      <point x="134" y="390"/>
      <point x="182" y="436"/>
      <point x="246" y="436" type="curve" smooth="yes"/>
      <point x="307" y="436"/>
      <point x="352" y="395"/>
      <point x="352" y="332" type="curve" smooth="yes"/>
    </contour>
  </outline>
</glyph>
<glyph name="eth" format="2">
  <advance width="516"/>
  <unicode hex="00F0"/>
  <outline>
    <contour>
      <point x="256" y="-12" type="curve" smooth="yes"/>
      <point x="392" y="-12"/>
      <point x="488" y="88"/>
      <point x="488" y="252" type="curve" smooth="yes"/>
      <point x="488" y="432"/>
      <point x="368" y="644"/>
      <point x="136" y="688" type="curve"/>
      <point x="120" y="608" type="line"/>
      <point x="240" y="584"/>
      <point x="324" y="512"/>
      <point x="376" y="412" type="curve"/>
      <point x="388" y="424" type="line"/>
      <point x="356" y="448"/>
      <point x="306" y="462"/>
      <point x="256" y="462" type="curve" smooth="yes"/>
      <point x="122" y="462"/>
      <point x="28" y="363"/>
      <point x="28" y="224" type="curve" smooth="yes"/>
      <point x="28" y="86"/>
      <point x="120" y="-12"/>
    </contour>
    <contour>
      <point x="260" y="68" type="curve" smooth="yes"/>
      <point x="174" y="69"/>
      <point x="112" y="137"/>
      <point x="112" y="230" type="curve" smooth="yes"/>
      <point x="112" y="324"/>
      <point x="174" y="392"/>
      <point x="260" y="392" type="curve" smooth="yes"/>
      <point x="346" y="392"/>
      <point x="408" y="324"/>
      <point x="408" y="230" type="curve" smooth="yes"/>
      <point x="408" y="136"/>
      <point x="346" y="68"/>
    </contour>
    <contour>
      <point x="176" y="492" type="line"/>
      <point x="368" y="664" type="line"/>
      <point x="316" y="720" type="line"/>
      <point x="128" y="548" type="line"/>
    </contour>
  </outline>
</glyph>
<glyph name="divide" format="2">
  <advance width="600"/>
  <unicode hex="00F7"/>
  <outline>
    <contour>
      <point x="80" y="278" type="line"/>
      <point x="520" y="278" type="line"/>
      <point x="520" y="362" type="line"/>
      <point x="80" y="362" type="line"/>
    </contour>
    <component base="period" xOffset="204" yOffset="88"/>
    <component base="period" xOffset="204" yOffset="436"/>
  </outline>
</glyph>
<glyph name="oslash" format="2">
  <advance width="564"/>
  <unicode hex="00F8"/>
  <outline>
    <contour>
      <point x="96" y="-22" type="line"/>
      <point x="518" y="480" type="line"/>
      <point x="462" y="528" type="line"/>
      <point x="40" y="26" type="line"/>
    </contour>
    <component base="o"/>
  </outline>
</glyph>
<glyph name="thorn" format="2">
  <advance width="590"/>
  <unicode hex="00FE"/>
  <outline>
    <contour>
      <point x="320" y="-12" type="curve" smooth="yes"/>
      <point x="449" y="-12"/>
      <point x="558" y="95"/>
      <point x="558" y="252" type="curve" smooth="yes"/>
      <point x="558" y="404"/>
      <point x="454" y="512"/>
      <point x="320" y="512" type="curve" smooth="yes"/>
      <point x="185" y="512"/>
      <point x="98" y="403"/>
      <point x="98" y="252" type="curve" smooth="yes"/>
      <point x="98" y="100"/>
      <point x="188" y="-12"/>
    </contour>
    <contour>
      <point x="64" y="-200" type="line"/>
      <point x="144" y="-200" type="line"/>
      <point x="144" y="100" type="line"/>
      <point x="114" y="250" type="line"/>
      <point x="144" y="400" type="line"/>
      <point x="144" y="680" type="line"/>
      <point x="64" y="680" type="line"/>
    </contour>
    <contour>
      <point x="308" y="68" type="curve" smooth="yes"/>
      <point x="212" y="68"/>
      <point x="142" y="144"/>
      <point x="142" y="250" type="curve" smooth="yes"/>
      <point x="142" y="357"/>
      <point x="212" y="434"/>
      <point x="308" y="434" type="curve" smooth="yes"/>
      <point x="404" y="434"/>
      <point x="474" y="357"/>
      <point x="474" y="250" type="curve" smooth="yes"/>
      <point x="474" y="144"/>
      <point x="404" y="68"/>
    </contour>
  </outline>
</glyph>
<glyph name="dcroat" format="2">
  <advance width="600"/>
  <unicode hex="0111"/>
  <outline>
    <contour>
      <point x="208" y="574" type="line"/>
      <point x="592" y="574" type="line"/>
      <point x="592" y="642" type="line"/>
      <point x="208" y="642" type="line"/>
    </contour>
    <component base="d"/>
  </outline>
</glyph>
<glyph name="eogonek" format="2">
  <advance width="540"/>
  <unicode hex="0119"/>
  <outline>
    <contour>
      <point x="372" y="-190" type="curve" smooth="yes"/>
      <point x="384" y="-190"/>
      <point x="398" y="-189"/>
      <point x="406" y="-188" type="curve"/>
      <point x="404" y="-129" type="line"/>
      <point x="398" y="-130"/>
      <point x="391" y="-130"/>
      <point x="388" y="-130" type="curve" smooth="yes"/>
      <point x="360" y="-130"/>
      <point x="340" y="-116"/>
      <point x="340" y="-88" type="curve" smooth="yes"/>
      <point x="340" y="-35"/>
      <point x="386" y="-1"/>
      <point x="440" y="48" type="curve"/>
      <point x="348" y="0" type="line"/>
      <point x="304" y="-28"/>
      <point x="268" y="-64"/>
      <point x="268" y="-112" type="curve" smooth="yes"/>
      <point x="268" y="-164"/>
      <point x="308" y="-190"/>
    </contour>
    <component base="e"/>
  </outline>
</glyph>
<glyph name="Hbar" format="2">
  <advance width="668"/>
  <unicode hex="0126"/>
  <outline>
    <contour>
      <point x="8" y="510" type="line"/>
      <point x="660" y="510" type="line"/>
      <point x="660" y="582" type="line"/>
      <point x="8" y="582" type="line"/>
    </contour>
    <component base="H" xOffset="4"/>
  </outline>
</glyph>
<glyph name="hbar" format="2">
  <advance width="558"/>
  <unicode hex="0127"/>
  <outline>
    <contour>
      <point x="8" y="574" type="line"/>
      <point x="384" y="574" type="line"/>
      <point x="384" y="642" type="line"/>
      <point x="8" y="642" type="line"/>
    </contour>
    <component base="h" xOffset="4"/>
  </outline>
</glyph>
<glyph name="idotless" format="2">
  <advance width="208"/>
  <unicode hex="0131"/>
  <anchor x="144" y="0" name="ogonek"/>
  <anchor x="104" y="500" name="top"/>
  <outline>
    <contour>
      <point x="64" y="500" type="line"/>
      <point x="64" y="0" type="line"/>
      <point x="144" y="0" type="line"/>
      <point x="144" y="500" type="line"/>
    </contour>
  </outline>
</glyph>
<glyph name="Lslash" format="2">
  <advance width="500"/>
  <unicode hex="0141"/>
  <outline>
    <contour>
      <point x="8" y="280" type="line"/>
      <point x="352" y="372" type="line"/>
      <point x="352" y="448" type="line"/>
      <point x="8" y="356" type="line"/>
    </contour>
    <component base="L"/>
  </outline>
</glyph>
<glyph name="lslash" format="2">
  <advance width="258"/>
  <unicode hex="0142"/>
  <outline>
    <contour>
      <point x="16" y="283" type="line"/>
      <point x="242" y="345" type="line"/>
      <point x="242" y="423" type="line"/>
      <point x="16" y="361" type="line"/>
    </contour>
    <component base="l" xOffset="24"/>
  </outline>
</glyph>
<glyph name="OE" format="2">
  <advance width="1058"/>
  <unicode hex="0152"/>
  <outline>
    <contour>
      <point x="347" y="-12" type="curve" smooth="yes"/>
      <point x="447" y="-12"/>
      <point x="534" y="28"/>
      <point x="582" y="100" type="curve"/>
      <point x="582" y="548" type="line"/>
      <point x="534" y="620"/>
      <point x="447" y="662"/>
      <point x="347" y="662" type="curve" smooth="yes"/>
      <point x="167" y="662"/>
      <point x="36" y="520"/>
      <point x="36" y="325" type="curve" smooth="yes"/>
      <point x="36" y="130"/>
      <point x="167" y="-12"/>
    </contour>
    <contour>
      <point x="353" y="72" type="curve" smooth="yes"/>
      <point x="220" y="72"/>
      <point x="124" y="178"/>
      <point x="124" y="325" type="curve" smooth="yes"/>
      <point x="124" y="473"/>
      <point x="220" y="580"/>
      <point x="353" y="580" type="curve" smooth="yes"/>
      <point x="486" y="580"/>
      <point x="582" y="475"/>
      <point x="582" y="325" type="curve" smooth="yes"/>
      <point x="582" y="176"/>
      <point x="486" y="72"/>
    </contour>
    <contour>
      <point x="646" y="0" type="line"/>
      <point x="1026" y="0" type="line"/>
      <point x="1026" y="82" type="line"/>
      <point x="646" y="82" type="line"/>
    </contour>
    <contour>
      <point x="582" y="0" type="line"/>
      <point x="666" y="0" type="line"/>
      <point x="666" y="650" type="line"/>
      <point x="582" y="650" type="line"/>
    </contour>
    <contour>
      <point x="646" y="294" type="line"/>
      <point x="974" y="294" type="line"/>
      <point x="974" y="372" type="line"/>
      <point x="646" y="372" type="line"/>
    </contour>
    <contour>
      <point x="646" y="570" type="line"/>
      <point x="1014" y="570" type="line"/>
      <point x="1014" y="650" type="line"/>
      <point x="646" y="650" type="line"/>
    </contour>
  </outline>
</glyph>
<glyph name="oe" format="2">
  <advance width="900"/>
  <unicode hex="0153"/>
  <outline>
    <contour>
      <point x="268" y="-12" type="curve" smooth="yes"/>
      <point x="408" y="-12"/>
      <point x="504" y="96"/>
      <point x="504" y="250" type="curve" smooth="yes"/>
      <point x="504" y="404"/>
      <point x="408" y="512"/>
      <point x="268" y="512" type="curve" smooth="yes"/>
      <point x="131" y="512"/>
      <point x="32" y="402"/>
      <point x="32" y="250" type="curve" smooth="yes"/>
      <point x="32" y="98"/>
      <point x="131" y="-12"/>
    </contour>
    <contour>
      <point x="270" y="68" type="curve" smooth="yes"/>
      <point x="182" y="68"/>
      <point x="118" y="144"/>
      <point x="118" y="250" type="curve" smooth="yes"/>
      <point x="118" y="357"/>
      <point x="182" y="434"/>
      <point x="270" y="434" type="curve" smooth="yes"/>
      <point x="358" y="434"/>
      <point x="422" y="357"/>
      <point x="422" y="250" type="curve" smooth="yes"/>
      <point x="422" y="144"/>
      <point x="358" y="68"/>
    </contour>
    <contour>
      <point x="650" y="-12" type="curve" smooth="yes"/>
      <point x="753" y="-12"/>
      <point x="842" y="51"/>
      <point x="862" y="140" type="curve"/>
      <point x="772" y="168" type="line"/>
      <point x="759" y="107"/>
      <point x="711" y="68"/>
      <point x="648" y="68" type="curve" smooth="yes"/>
      <point x="561" y="68"/>
      <point x="500" y="140"/>
      <point x="500" y="250" type="curve" smooth="yes"/>
      <point x="500" y="361"/>
      <point x="556" y="434"/>
      <point x="642" y="434" type="curve" smooth="yes"/>
      <point x="714" y="434"/>
      <point x="768" y="379"/>
      <point x="780" y="295" type="curve"/>
      <point x="480" y="295" type="line"/>
      <point x="480" y="217" type="line"/>
      <point x="867" y="217" type="line"/>
      <point x="879" y="381"/>
      <point x="792" y="512"/>
      <point x="644" y="512" type="curve" smooth="yes"/>
      <point x="559" y="512"/>
      <point x="491" y="468"/>
      <point x="452" y="400" type="curve"/>
      <point x="452" y="104" type="line"/>
      <point x="488" y="36"/>
      <point x="566" y="-12"/>
    </contour>
  </outline>
</glyph>
<glyph name="Uogonek" format="2">
  <advance width="636"/>
  <unicode hex="0172"/>
  <outline>
    <contour>
      <point x="416" y="-190" type="curve" smooth="yes"/>
      <point x="428" y="-190"/>
      <point x="442" y="-189"/>
      <point x="450" y="-188" type="curve"/>
      <point x="448" y="-129" type="line"/>
      <point x="442" y="-130"/>
      <point x="435" y="-130"/>
      <point x="432" y="-130" type="curve" smooth="yes"/>
      <point x="404" y="-130"/>
      <point x="384" y="-116"/>
      <point x="384" y="-88" type="curve" smooth="yes"/>
      <point x="384" y="-40"/>
      <point x="416" y="-10"/>
      <point x="480" y="42" type="curve"/>
      <point x="392" y="0" type="line"/>
      <point x="348" y="-28"/>
      <point x="312" y="-68"/>
      <point x="312" y="-108" type="curve" smooth="yes"/>
      <point x="312" y="-164"/>
      <point x="352" y="-190"/>
    </contour>
    <component base="U"/>
  </outline>
</glyph>
<glyph name="Schwa" format="2">
  <advance width="672"/>
  <unicode hex="018F"/>
  <outline>
    <contour>
      <point x="336" y="-12" type="curve" smooth="yes"/>
      <point x="511" y="-12"/>
      <point x="636" y="128"/>
      <point x="636" y="324" type="curve" smooth="yes"/>
      <point x="636" y="521"/>
      <point x="511" y="662"/>
      <point x="336" y="662" type="curve" smooth="yes"/>
      <point x="204" y="662"/>
      <point x="87" y="581"/>
      <point x="56" y="468" type="curve"/>
      <point x="152" y="436" type="line"/>
      <point x="170" y="524"/>
      <point x="248" y="580"/>
      <point x="340" y="580" type="curve" smooth="yes"/>
      <point x="464" y="580"/>
      <point x="548" y="480"/>
      <point x="548" y="324" type="curve" smooth="yes"/>
      <point x="548" y="176"/>
      <point x="470" y="72"/>
      <point x="338" y="72" type="curve" smooth="yes"/>
      <point x="218" y="72"/>
      <point x="136" y="156"/>
      <point x="128" y="288" type="curve"/>
      <point x="568" y="288" type="line"/>
      <point x="568" y="368" type="line"/>
      <point x="38" y="368" type="line"/>
      <point x="18" y="144"/>
      <point x="148" y="-12"/>
    </contour>
  </outline>
</glyph>
<glyph name="florin" format="2">
  <advance width="368"/>
  <unicode hex="0192"/>
  <outline>
    <contour>
      <point x="44" y="-200" type="line"/>
      <point x="124" y="-200" type="line"/>
      <point x="202" y="540" type="line" smooth="yes"/>
      <point x="210" y="612"/>
      <point x="292" y="632"/>
      <point x="336" y="584" type="curve"/>
      <point x="368" y="672" type="line"/>
      <point x="272" y="724"/>
      <point x="138" y="680"/>
      <point x="124" y="548" type="curve" smooth="yes"/>
    </contour>
    <contour>
      <point x="16" y="326" type="line"/>
      <point x="320" y="326" type="line"/>
      <point x="320" y="404" type="line"/>
      <point x="16" y="404" type="line"/>
    </contour>
  </outline>
</glyph>
<glyph name="schwa" format="2">
  <advance width="540"/>
  <unicode hex="0259"/>
  <outline>
    <contour>
      <point x="270" y="-12" type="curve" smooth="yes"/>
      <point x="410" y="-12"/>
      <point x="508" y="96"/>
      <point x="508" y="248" type="curve" smooth="yes"/>
      <point x="508" y="402"/>
      <point x="405" y="512"/>
      <point x="264" y="512" type="curve" smooth="yes"/>
      <point x="160" y="512"/>
      <point x="72" y="452"/>
      <point x="48" y="368" type="curve"/>
      <point x="140" y="340" type="line"/>
      <point x="154" y="398"/>
      <point x="206" y="434"/>
      <point x="270" y="434" type="curve" smooth="yes"/>
      <point x="362" y="434"/>
      <point x="422" y="360"/>
      <point x="422" y="248" type="curve" smooth="yes"/>
      <point x="422" y="139"/>
      <point x="362" y="68"/>
      <point x="270" y="68" type="curve" smooth="yes"/>
      <point x="187" y="68"/>
      <point x="128" y="124"/>
      <point x="120" y="209" type="curve"/>
      <point x="442" y="209" type="line"/>
      <point x="442" y="287" type="line"/>
      <point x="33" y="287" type="line"/>
      <point x="21" y="113"/>
      <point x="121" y="-12"/>
    </contour>
  </outline>
</glyph>
<glyph name="gravecomb" format="2">
  <advance width="600"/>
  <unicode hex="0300"/>
  <anchor x="300" y="500" name="_top"/>
  <outline>
    <contour>
      <point x="256" y="568" type="line"/>
      <point x="336" y="568" type="line"/>
      <point x="276" y="692" type="line"/>
      <point x="156" y="692" type="line"/>
    </contour>
  </outline>
</glyph>
<glyph name="circumflexcomb" format="2">
  <advance width="600"/>
  <unicode hex="0302"/>
  <anchor x="300" y="500" name="_top"/>
  <outline>
    <contour>
      <point x="160" y="564" type="line"/>
      <point x="240" y="564" type="line"/>
      <point x="299" y="632" type="line"/>
      <point x="362" y="564" type="line"/>
      <point x="440" y="564" type="line"/>
      <point x="348" y="688" type="line"/>
      <point x="252" y="688" type="line"/>
    </contour>
  </outline>
</glyph>
<glyph name="macroncomb" format="2">
  <advance width="600"/>
  <unicode hex="0304"/>
  <anchor x="300" y="500" name="_top"/>
  <outline>
    <contour>
      <point x="176" y="576" type="line"/>
      <point x="424" y="576" type="line"/>
      <point x="424" y="644" type="line"/>
      <point x="176" y="644" type="line"/>
    </contour>
  </outline>
</glyph>
<glyph name="brevecomb" format="2">
  <advance width="600"/>
  <unicode hex="0306"/>
  <anchor x="300" y="500" name="_top"/>
  <outline>
    <contour>
      <point x="300" y="560" type="curve" smooth="yes"/>
      <point x="368" y="560"/>
      <point x="418" y="609"/>
      <point x="418" y="676" type="curve" smooth="yes"/>
      <point x="418" y="692" type="line"/>
      <point x="346" y="692" type="line"/>
      <point x="346" y="686"/>
      <point x="346" y="680"/>
      <point x="346" y="674" type="curve" smooth="yes"/>
      <point x="346" y="643"/>
      <point x="327" y="620"/>
      <point x="300" y="620" type="curve" smooth="yes"/>
      <point x="273" y="620"/>
      <point x="254" y="643"/>
      <point x="254" y="674" type="curve" smooth="yes"/>
      <point x="254" y="680"/>
      <point x="254" y="686"/>
      <point x="254" y="692" type="curve"/>
      <point x="182" y="692" type="line"/>
      <point x="182" y="676" type="line" smooth="yes"/>
      <point x="182" y="609"/>
      <point x="232" y="560"/>
    </contour>
  </outline>
</glyph>
<glyph name="dotaccentcomb" format="2">
  <advance width="600"/>
  <unicode hex="0307"/>
  <anchor x="300" y="500" name="_top"/>
  <outline>
    <contour>
      <point x="300" y="564" type="curve" smooth="yes"/>
      <point x="336" y="564"/>
      <point x="362" y="591"/>
      <point x="362" y="628" type="curve" smooth="yes"/>
      <point x="362" y="665"/>
      <point x="336" y="692"/>
      <point x="300" y="692" type="curve" smooth="yes"/>
      <point x="264" y="692"/>
      <point x="238" y="665"/>
      <point x="238" y="628" type="curve" smooth="yes"/>
      <point x="238" y="591"/>
      <point x="264" y="564"/>
    </contour>
  </outline>
</glyph>
<glyph name="dieresiscomb" format="2">
  <advance width="600"/>
  <unicode hex="0308"/>
  <anchor x="300" y="500" name="_top"/>
  <outline>
    <contour>
      <point x="386" y="564" type="curve" smooth="yes"/>
      <point x="421" y="564"/>
      <point x="446" y="590"/>
      <point x="446" y="626" type="curve" smooth="yes"/>
      <point x="446" y="662"/>
      <point x="421" y="688"/>
      <point x="386" y="688" type="curve" smooth="yes"/>
      <point x="351" y="688"/>
      <point x="326" y="662"/>
      <point x="326" y="626" type="curve" smooth="yes"/>
      <point x="326" y="590"/>
      <point x="351" y="564"/>
    </contour>
    <contour>
      <point x="214" y="564" type="curve" smooth="yes"/>
      <point x="249" y="564"/>
      <point x="274" y="590"/>
      <point x="274" y="626" type="curve" smooth="yes"/>
      <point x="274" y="662"/>
      <point x="249" y="688"/>
      <point x="214" y="688" type="curve" smooth="yes"/>
      <point x="179" y="688"/>
      <point x="154" y="662"/>
      <point x="154" y="626" type="curve" smooth="yes"/>
      <point x="154" y="590"/>
      <point x="179" y="564"/>
    </contour>
  </outline>
</glyph>
<glyph name="ringcomb" format="2">
  <advance width="600"/>
  <unicode hex="030A"/>
  <anchor x="300" y="500" name="_top"/>
  <outline>
    <contour>
      <point x="300" y="556" type="curve" smooth="yes"/>
      <point x="350" y="556"/>
      <point x="386" y="593"/>
      <point x="386" y="644" type="curve" smooth="yes"/>
      <point x="386" y="695"/>
      <point x="350" y="732"/>
      <point x="300" y="732" type="curve" smooth="yes"/>
      <point x="250" y="732"/>
      <point x="214" y="695"/>
      <point x="214" y="644" type="curve" smooth="yes"/>
      <point x="214" y="593"/>
      <point x="250" y="556"/>
    </contour>
    <contour>
      <point x="300" y="607" type="curve" smooth="yes"/>
      <point x="279" y="607"/>
      <point x="264" y="623"/>
      <point x="264" y="644" type="curve" smooth="yes"/>
      <point x="264" y="666"/>
      <point x="279" y="682"/>
      <point x="300" y="682" type="curve" smooth="yes"/>
      <point x="321" y="682"/>
      <point x="336" y="666"/>
      <point x="336" y="644" type="curve" smooth="yes"/>
      <point x="336" y="623"/>
      <point x="321" y="607"/>
    </contour>
  </outline>
</glyph>
<glyph name="hungarumlautcomb" format="2">
  <advance width="600"/>
  <unicode hex="030B"/>
  <anchor x="300" y="500" name="_top"/>
  <outline>
    <contour>
      <point x="314" y="568" type="line"/>
      <point x="386" y="568" type="line"/>
      <point x="486" y="692" type="line"/>
      <point x="382" y="692" type="line"/>
    </contour>
    <contour>
      <point x="202" y="568" type="line"/>
      <point x="268" y="568" type="line"/>
      <point x="356" y="692" type="line"/>
      <point x="254" y="692" type="line"/>
    </contour>
  </outline>
</glyph>
<glyph name="caroncomb" format="2">
  <advance width="600"/>
  <unicode hex="030C"/>
  <anchor x="300" y="500" name="_top"/>
  <outline>
    <contour>
      <point x="248" y="568" type="line"/>
      <point x="352" y="568" type="line"/>
      <point x="436" y="692" type="line"/>
      <point x="366" y="692" type="line"/>
      <point x="301" y="620" type="line"/>
      <point x="236" y="692" type="line"/>
      <point x="164" y="692" type="line"/>
    </contour>
  </outline>
</glyph>
<glyph name="commaaccentcomb" format="2">
  <advance width="600"/>
  <unicode hex="0326"/>
  <anchor x="300" y="0" name="_bottom"/>
  <outline>
    <contour>
      <point x="244" y="-210" type="line"/>
      <point x="297" y="-223"/>
      <point x="358" y="-191"/>
      <point x="358" y="-116" type="curve" smooth="yes"/>
      <point x="358" y="-69"/>
      <point x="334" y="-36"/>
      <point x="296" y="-36" type="curve" smooth="yes"/>
      <point x="264" y="-36"/>
      <point x="244" y="-59"/>
      <point x="244" y="-90" type="curve" smooth="yes"/>
      <point x="244" y="-122"/>
      <point x="264" y="-146"/>
      <point x="302" y="-144" type="curve"/>
      <point x="300" y="-165"/>
      <point x="277" y="-175"/>
      <point x="246" y="-168" type="curve"/>
    </contour>
  </outline>
</glyph>
<glyph name="cedillacomb" format="2">
  <advance width="600"/>
  <unicode hex="0327"/>
  <anchor x="300" y="0" name="_bottom"/>
  <outline>
    <contour>
      <point x="314" y="-208"/>
      <point x="392" y="-186"/>
      <point x="392" y="-122" type="curve" smooth="yes"/>
      <point x="392" y="-80"/>
      <point x="358" y="-50"/>
      <point x="310" y="-44" type="curve"/>
      <point x="334" y="28" type="line"/>
      <point x="282" y="28" type="line"/>
      <point x="248" y="-84" type="line"/>
      <point x="288" y="-88" type="line" smooth="yes"/>
      <point x="312" y="-90"/>
      <point x="328" y="-100"/>
      <point x="328" y="-116" type="curve" smooth="yes"/>
      <point x="328" y="-142"/>
      <point x="284" y="-148"/>
      <point x="232" y="-136" type="curve"/>
      <point x="230" y="-196" type="line"/>
    </contour>
  </outline>
</glyph>
<glyph name="Ze-cy" format="2">
  <advance width="524"/>
  <unicode hex="0417"/>
  <outline>
    <contour>
      <point x="272" y="-12" type="curve" smooth="yes"/>
      <point x="400" y="-12"/>
      <point x="492" y="60"/>
      <point x="492" y="172" type="curve" smooth="yes"/>
      <point x="492" y="280"/>
      <point x="408" y="340"/>
      <point x="296" y="344" type="curve"/>
      <point x="296" y="328" type="line"/>
      <point x="400" y="336"/>
      <point x="476" y="392"/>
      <point x="476" y="488" type="curve" smooth="yes"/>
      <point x="476" y="589"/>
      <point x="393" y="662"/>
      <point x="276" y="662" type="curve" smooth="yes"/>
      <point x="151" y="662"/>
      <point x="58" y="574"/>
      <point x="54" y="450" type="curve"/>
      <point x="140" y="436" type="line"/>
      <point x="136" y="523"/>
      <point x="188" y="580"/>
      <point x="272" y="580" type="curve" smooth="yes"/>
      <point x="345" y="580"/>
      <point x="392" y="540"/>
      <point x="392" y="478" type="curve" smooth="yes"/>
      <point x="392" y="414"/>
      <point x="345" y="372"/>
      <point x="272" y="372" type="curve" smooth="yes"/>
      <point x="224" y="372" type="line"/>
      <point x="224" y="296" type="line"/>
      <point x="272" y="296" type="line" smooth="yes"/>
      <point x="352" y="296"/>
      <point x="404" y="252"/>
      <point x="404" y="184" type="curve" smooth="yes"/>
      <point x="404" y="116"/>
      <point x="354" y="72"/>
      <point x="276" y="72" type="curve" smooth="yes"/>
      <point x="182" y="72"/>
      <point x="124" y="137"/>
      <point x="128" y="236" type="curve"/>
      <point x="40" y="208" type="line"/>
      <point x="40" y="80"/>
      <point x="137" y="-12"/>
    </contour>
  </outline>
</glyph>
<glyph name="ze-cy" format="2">
  <advance width="460"/>
  <unicode hex="0437"/>
  <outline>
    <contour>
      <point x="232" y="-12" type="curve" smooth="yes"/>
      <point x="346" y="-12"/>
      <point x="428" y="48"/>
      <point x="428" y="132" type="curve" smooth="yes"/>
      <point x="428" y="204"/>
      <point x="371" y="256"/>
      <point x="284" y="264" type="curve"/>
      <point x="284" y="256" type="line"/>
      <point x="358" y="260"/>
      <point x="406" y="308"/>
      <point x="406" y="374" type="curve" smooth="yes"/>
      <point x="406" y="456"/>
      <point x="332" y="512"/>
      <point x="228" y="512" type="curve" smooth="yes"/>
      <point x="124" y="512"/>
      <point x="44" y="454"/>
      <point x="36" y="372" type="curve"/>
      <point x="120" y="352" type="line"/>
      <point x="123" y="403"/>
      <point x="164" y="436"/>
      <point x="224" y="436" type="curve" smooth="yes"/>
      <point x="286" y="436"/>
      <point x="326" y="408"/>
      <point x="326" y="364" type="curve" smooth="yes"/>
      <point x="326" y="320"/>
      <point x="286" y="292"/>
      <point x="224" y="292" type="curve" smooth="yes"/>
      <point x="192" y="292" type="line"/>
      <point x="192" y="218" type="line"/>
      <point x="228" y="218" type="line" smooth="yes"/>
      <point x="298" y="218"/>
      <point x="344" y="188"/>
      <point x="344" y="142" type="curve" smooth="yes"/>
      <point x="344" y="96"/>
      <point x="298" y="66"/>
      <point x="238" y="66" type="curve" smooth="yes"/>
      <point x="174" y="66"/>
      <point x="120" y="104"/>
      <point x="116" y="168" type="curve"/>
      <point x="24" y="147" type="line"/>
      <point x="32" y="54"/>
      <point x="118" y="-12"/>
    </contour>
  </outline>
</glyph>
<glyph name="Germandbls" format="2">
  <advance width="616"/>
  <unicode hex="1E9E"/>
  <outline>
    <contour>
      <point x="408" y="-12" type="curve" smooth="yes"/>
      <point x="522" y="-12"/>
      <point x="604" y="61"/>
      <point x="604" y="164" type="curve" smooth="yes"/>
      <point x="604" y="360"/>
      <point x="296" y="360"/>
      <point x="296" y="476" type="curve" smooth="yes"/>
      <point x="296" y="552"/>
      <point x="408" y="576"/>
      <point x="480" y="520" type="curve"/>
      <point x="526" y="578" type="line"/>
      <point x="482" y="630"/>
      <point x="400" y="662"/>
      <point x="316" y="662" type="curve" smooth="yes"/>
      <point x="171" y="662"/>
      <point x="64" y="569"/>
      <point x="64" y="440" type="curve" smooth="yes"/>
      <point x="64" y="0" type="line"/>
      <point x="148" y="0" type="line"/>
      <point x="148" y="448" type="line" smooth="yes"/>
      <point x="148" y="537"/>
      <point x="213" y="600"/>
      <point x="320" y="600" type="curve"/>
      <point x="250" y="581"/>
      <point x="216" y="528"/>
      <point x="216" y="468" type="curve" smooth="yes"/>
      <point x="216" y="288"/>
      <point x="516" y="316"/>
      <point x="516" y="164" type="curve" smooth="yes"/>
      <point x="516" y="104"/>
      <point x="470" y="68"/>
      <point x="410" y="68" type="curve" smooth="yes"/>
      <point x="334" y="68"/>
      <point x="280" y="124"/>
      <point x="276" y="200" type="curve"/>
      <point x="186" y="184" type="line"/>
      <point x="194" y="70"/>
      <point x="287" y="-12"/>
    </contour>
  </outline>
</glyph>
<glyph name="endash" format="2">
  <advance width="524"/>
  <unicode hex="2013"/>
  <outline>
    <contour>
      <point x="24" y="219" type="line"/>
      <point x="500" y="219" type="line"/>
      <point x="500" y="297" type="line"/>
      <point x="24" y="297" type="line"/>
    </contour>
  </outline>
</glyph>
<glyph name="emdash" format="2">
  <advance width="828"/>
  <unicode hex="2014"/>
  <outline>
    <contour>
      <point x="16" y="219" type="line"/>
      <point x="812" y="219" type="line"/>
      <point x="812" y="297" type="line"/>
      <point x="16" y="297" type="line"/>
    </contour>
  </outline>
</glyph>
<glyph name="dagger" format="2">
  <advance width="384"/>
  <unicode hex="2020"/>
  <outline>
    <contour>
      <point x="151" y="0" type="line"/>
      <point x="233" y="0" type="line"/>
      <point x="233" y="650" type="line"/>
      <point x="151" y="650" type="line"/>
    </contour>
    <contour>
      <point x="64" y="436" type="line"/>
      <point x="320" y="436" type="line"/>
      <point x="320" y="514" type="line"/>
      <point x="64" y="514" type="line"/>
    </contour>
  </outline>
</glyph>
<glyph name="daggerdbl" format="2">
  <advance width="384"/>
  <unicode hex="2021"/>
  <outline>
    <contour>
      <point x="151" y="0" type="line"/>
      <point x="233" y="0" type="line"/>
      <point x="233" y="650" type="line"/>
      <point x="151" y="650" type="line"/>
    </contour>
    <contour>
      <point x="64" y="164" type="line"/>
      <point x="320" y="164" type="line"/>
      <point x="320" y="243" type="line"/>
      <point x="64" y="243" type="line"/>
    </contour>
    <contour>
      <point x="64" y="436" type="line"/>
      <point x="320" y="436" type="line"/>
      <point x="320" y="514" type="line"/>
      <point x="64" y="514" type="line"/>
    </contour>
  </outline>
</glyph>
<glyph name="guilsinglleft" format="2">
  <advance width="324"/>
  <unicode hex="2039"/>
  <outline>
    <contour>
      <point x="208" y="44" type="line"/>
      <point x="264" y="96" type="line"/>
      <point x="128" y="251" type="line"/>
      <point x="260" y="408" type="line"/>
      <point x="204" y="460" type="line"/>
      <point x="36" y="250" type="line"/>
    </contour>
  </outline>
</glyph>
<glyph name="interrobang" format="2">
  <advance width="600"/>
  <unicode hex="203D"/>
  <outline>
    <contour>
      <point x="286" y="181" type="line"/>
      <point x="319" y="249"/>
      <point x="352" y="270"/>
      <point x="422" y="296" type="curve" smooth="yes"/>
      <point x="476" y="316"/>
      <point x="588" y="362"/>
      <point x="588" y="498" type="curve" smooth="yes"/>
      <point x="588" y="622"/>
      <point x="496" y="692"/>
      <point x="394" y="692" type="curve" smooth="yes"/>
      <point x="290" y="692"/>
      <point x="208" y="623"/>
      <point x="184" y="515" type="curve"/>
      <point x="270" y="483" type="line"/>
      <point x="278" y="559"/>
      <point x="330" y="610"/>
      <point x="396" y="610" type="curve" smooth="yes"/>
      <point x="458" y="610"/>
      <point x="502" y="564"/>
      <point x="502" y="500" type="curve" smooth="yes"/>
      <point x="502" y="416"/>
      <point x="422" y="378"/>
      <point x="386" y="364" type="curve" smooth="yes"/>
      <point x="312" y="335"/>
      <point x="268" y="311"/>
      <point x="226" y="211" type="curve"/>
    </contour>
    <contour>
      <point x="117" y="199" type="line"/>
      <point x="182" y="216" type="line"/>
      <point x="84" y="696" type="line"/>
      <point x="2" y="678" type="line"/>
    </contour>
    <component base="period" xOffset="100"/>
  </outline>
</glyph>
<glyph name="fraction" format="2">
  <advance width="764"/>
  <unicode hex="2044"/>
  <outline>
    <contour>
      <point x="172" y="-12" type="line"/>
      <point x="644" y="620" type="line"/>
      <point x="594" y="662" type="line"/>
      <point x="120" y="32" type="line"/>
    </contour>
  </outline>
</glyph>
<glyph name="zerosuperior" format="2">
  <advance width="328"/>
  <unicode hex="2070"/>
  <outline>
    <contour>
      <point x="164" y="332" type="curve" smooth="yes"/>
      <point x="246" y="332"/>
      <point x="304" y="399"/>
      <point x="304" y="494" type="curve" smooth="yes"/>
      <point x="304" y="589"/>
      <point x="246" y="656"/>
      <point x="164" y="656" type="curve" smooth="yes"/>
      <point x="82" y="656"/>
      <point x="24" y="589"/>
      <point x="24" y="494" type="curve" smooth="yes"/>
      <point x="24" y="399"/>
      <point x="82" y="332"/>
    </contour>
    <contour>
      <point x="164" y="394" type="curve" smooth="yes"/>
      <point x="119" y="394"/>
      <point x="88" y="436"/>
      <point x="88" y="495" type="curve" smooth="yes"/>
      <point x="88" y="554"/>
      <point x="119" y="596"/>
      <point x="164" y="596" type="curve" smooth="yes"/>
      <point x="209" y="596"/>
      <point x="240" y="554"/>
      <point x="240" y="495" type="curve" smooth="yes"/>
      <point x="240" y="436"/>
      <point x="209" y="394"/>
    </contour>
  </outline>
</glyph>
<glyph name="foursuperior" format="2">
  <advance width="264"/>
  <unicode hex="2074"/>
  <outline>
    <contour>
      <point x="16" y="404" type="line"/>
      <point x="254" y="404" type="line"/>
      <point x="254" y="460" type="line"/>
      <point x="72" y="460" type="line"/>
      <point x="116" y="496"/>
      <point x="138" y="558"/>
      <point x="138" y="634" type="curve" smooth="yes"/>
      <point x="138" y="650" type="line"/>
      <point x="74" y="650" type="line"/>
      <point x="74" y="626" type="line" smooth="yes"/>
      <point x="74" y="550"/>
      <point x="52" y="488"/>
      <point x="16" y="464" type="curve"/>
    </contour>
    <contour>
      <point x="158" y="338" type="line"/>
      <point x="218" y="338" type="line"/>
      <point x="218" y="584" type="line"/>
      <point x="158" y="572" type="line"/>
    </contour>
  </outline>
</glyph>
<glyph name="euro" format="2">
  <advance width="720"/>
  <unicode hex="20AC"/>
  <outline>
    <contour>
      <point x="8" y="350" type="line"/>
      <point x="444" y="350" type="line"/>
      <point x="480" y="424" type="line"/>
      <point x="8" y="424" type="line"/>
    </contour>
    <contour>
      <point x="8" y="224" type="line"/>
      <point x="424" y="224" type="line"/>
      <point x="456" y="300" type="line"/>
      <point x="8" y="300" type="line"/>
    </contour>
    <component base="C" xOffset="56"/>
  </outline>
</glyph>
<glyph name="trademark" format="2">
  <advance width="676"/>
  <unicode hex="2122"/>
  <outline>
    <contour>
      <point x="306" y="338" type="line"/>
      <point x="370" y="338" type="line"/>
      <point x="370" y="548" type="line"/>
      <point x="450" y="339" type="line"/>
      <point x="498" y="339" type="line"/>
      <point x="576" y="548" type="line"/>
      <point x="576" y="338" type="line"/>
      <point x="640" y="338" type="line"/>
      <point x="640" y="650" type="line"/>
      <point x="552" y="650" type="line"/>
      <point x="475" y="432" type="line"/>
      <point x="396" y="650" type="line"/>
      <point x="306" y="650" type="line"/>
    </contour>
    <contour>
      <point x="104" y="338" type="line"/>
      <point x="168" y="338" type="line"/>
      <point x="168" y="650" type="line"/>
      <point x="104" y="650" type="line"/>
    </contour>
    <contour>
      <point x="4" y="590" type="line"/>
      <point x="268" y="590" type="line"/>
      <point x="268" y="650" type="line"/>
      <point x="4" y="650" type="line"/>
    </contour>
  </outline>
</glyph>
<glyph name="upArrow" format="2">
  <advance width="592"/>
  <unicode hex="2191"/>
  <outline>
    <contour>
      <point x="256" y="0" type="line"/>
      <point x="336" y="0" type="line"/>
      <point x="336" y="516" type="line"/>
      <point x="516" y="328" type="line"/>
      <point x="568" y="384" type="line"/>
      <point x="296" y="666" type="line"/>
      <point x="24" y="384" type="line"/>
      <point x="76" y="328" type="line"/>
      <point x="256" y="516" type="line"/>
    </contour>
  </outline>
</glyph>
<glyph name="rightArrow" format="2">
  <advance width="592"/>
  <unicode hex="2192"/>
  <outline>
    <contour>
      <point x="294" y="58" type="line"/>
      <point x="576" y="332" type="line"/>
      <point x="294" y="606" type="line"/>
      <point x="242" y="552" type="line"/>
      <point x="432" y="371" type="line"/>
      <point x="12" y="371" type="line"/>
      <point x="12" y="293" type="line"/>
      <point x="430" y="293" type="line"/>
      <point x="244" y="116" type="line"/>
    </contour>
  </outline>
</glyph>
<glyph name="northEastArrow" format="2">
  <advance width="592"/>
  <unicode hex="2197"/>
  <outline>
    <contour>
      <point x="84" y="66" type="line"/>
      <point x="448" y="436" type="line"/>
      <point x="448" y="174" type="line"/>
      <point x="528" y="174" type="line"/>
      <point x="528" y="574" type="line"/>
      <point x="138" y="574" type="line"/>
      <point x="138" y="496" type="line"/>
      <point x="398" y="496" type="line"/>
      <point x="28" y="125" type="line"/>
    </contour>
  </outline>
</glyph>
<glyph name="southEastArrow" format="2">
  <advance width="592"/>
  <unicode hex="2198"/>
  <outline>
    <contour>
      <point x="138" y="85" type="line"/>
      <point x="528" y="85" type="line"/>
      <point x="528" y="485" type="line"/>
      <point x="448" y="485" type="line"/>
      <point x="448" y="221" type="line"/>
      <point x="84" y="595" type="line"/>
      <point x="28" y="535" type="line"/>
      <point x="394" y="165" type="line"/>
      <point x="138" y="165" type="line"/>
    </contour>
  </outline>
</glyph>
<glyph name="approxequal" format="2">
  <advance width="600"/>
  <unicode hex="2248"/>
  <outline>
    <contour>
      <point x="396" y="328" type="curve" smooth="yes"/>
      <point x="469" y="328"/>
      <point x="520" y="383"/>
      <point x="520" y="461" type="curve" smooth="yes"/>
      <point x="520" y="481" type="line"/>
      <point x="444" y="481" type="line"/>
      <point x="444" y="469" type="line" smooth="yes"/>
      <point x="444" y="434"/>
      <point x="421" y="409"/>
      <point x="388" y="409" type="curve" smooth="yes"/>
      <point x="328" y="409"/>
      <point x="292" y="488"/>
      <point x="204" y="488" type="curve" smooth="yes"/>
      <point x="131" y="488"/>
      <point x="80" y="433"/>
      <point x="80" y="355" type="curve" smooth="yes"/>
      <point x="80" y="335" type="line"/>
      <point x="156" y="335" type="line"/>
      <point x="156" y="347" type="line" smooth="yes"/>
      <point x="156" y="382"/>
      <point x="179" y="407"/>
      <point x="212" y="407" type="curve" smooth="yes"/>
      <point x="272" y="407"/>
      <point x="308" y="328"/>
    </contour>
    <contour>
      <point x="396" y="152" type="curve" smooth="yes"/>
      <point x="469" y="152"/>
      <point x="520" y="207"/>
      <point x="520" y="285" type="curve" smooth="yes"/>
      <point x="520" y="305" type="line"/>
      <point x="444" y="305" type="line"/>
      <point x="444" y="293" type="line" smooth="yes"/>
      <point x="444" y="258"/>
      <point x="421" y="233"/>
      <point x="388" y="233" type="curve" smooth="yes"/>
      <point x="328" y="233"/>
      <point x="292" y="312"/>
      <point x="204" y="312" type="curve" smooth="yes"/>
      <point x="131" y="312"/>
      <point x="80" y="257"/>
      <point x="80" y="179" type="curve" smooth="yes"/>
      <point x="80" y="159" type="line"/>
      <point x="156" y="159" type="line"/>
      <point x="156" y="171" type="line" smooth="yes"/>
      <point x="156" y="206"/>
      <point x="179" y="231"/>
      <point x="212" y="231" type="curve" smooth="yes"/>
      <point x="272" y="231"/>
      <point x="308" y="152"/>
    </contour>
  </outline>
</glyph>
<glyph name="notequal" format="2">
  <advance width="600"/>
  <unicode hex="2260"/>
  <outline>
    <contour>
      <point x="200" y="52" type="line"/>
      <point x="468" y="548" type="line"/>
      <point x="404" y="584" type="line"/>
      <point x="136" y="88" type="line"/>
    </contour>
    <component base="equal"/>
  </outline>
</glyph>
<glyph name="greaterequal" format="2">
  <advance width="600"/>
  <unicode hex="2265"/>
  <outline>
    <contour>
      <point x="100" y="104" type="line"/>
      <point x="508" y="104" type="line"/>
      <point x="508" y="184" type="line"/>
      <point x="100" y="184" type="line"/>
    </contour>
    <contour>
      <point x="112" y="220" type="line"/>
      <point x="508" y="312" type="line"/>
      <point x="508" y="420" type="line"/>
      <point x="110" y="536" type="line"/>
      <point x="102" y="448" type="line"/>
      <point x="416" y="368" type="line"/>
      <point x="100" y="304" type="line"/>
    </contour>
  </outline>
</glyph>
